<?xml version="1.0" standalone="no"?>
<!DOCTYPE svg PUBLIC "-//W3C//DTD SVG 1.1//EN" "http://www.w3.org/Graphics/SVG/1.1/DTD/svg11.dtd" >
<svg xmlns="http://www.w3.org/2000/svg" xmlns:xlink="http://www.w3.org/1999/xlink" version="1.1">
<metadata></metadata>
<defs>
<font id="lasting_loveregular" horiz-adv-x="1014" >
<font-face units-per-em="2048" ascent="1638" descent="-410" />
<missing-glyph horiz-adv-x="508" />
<glyph horiz-adv-x="0" />
<glyph unicode="&#xd;" horiz-adv-x="508" />
<glyph unicode=" "  horiz-adv-x="508" />
<glyph unicode="&#x09;" horiz-adv-x="508" />
<glyph unicode="&#xa0;" horiz-adv-x="508" />
<glyph unicode="!" horiz-adv-x="672" d="M207 136q0 15 16 31l82 84q15 14 29 14q13 0 31 -16l80 -86q12 -16 12 -29q0 -15 -14 -31l-80 -88q-20 -20 -29 -20q-16 0 -29 14l-88 101q-10 13 -10 26zM264 1364q0 46 21 69t62 23q42 0 62.5 -23t20.5 -69l-80 -1036h-37z" />
<glyph unicode="&#x22;" horiz-adv-x="672" d="M101 1500q0 37 20.5 57t59.5 20t60.5 -19.5t21.5 -56.5q0 -8 -4 -34l-62 -359h-30l-62 359q-4 23 -4 33zM413 1500q0 37 20.5 57t59.5 20t60.5 -19.5t21.5 -56.5q0 -8 -4 -34l-62 -359h-30l-62 359q-4 23 -4 33z" />
<glyph unicode="#" horiz-adv-x="1336" d="M117 472l30 98h271l86 290h-295l29 97h295l140 477h93l-141 -477h242l142 477h92l-141 -477h259l-29 -97h-259l-83 -290h279l-30 -98h-280l-140 -472h-92l139 472h-240l-142 -472h-92l140 472h-273zM511 569h242l86 290h-243z" />
<glyph unicode="$" d="M113 1079q0 166 125 271q105 88 266 102v100h73v-102q68 -8 141 -35q10 -6 19 -6q25 0 41 45h50l103 -282h-49q-60 134 -168 179q-74 30 -137 39v-540q241 -93 322.5 -183t81.5 -264q0 -197 -119.5 -300t-284.5 -120v-239h-73v237q-188 3 -266 38q-10 6 -19 6 q-25 0 -41 -45h-50v331h49q50 -183 152.5 -226t174.5 -43v635q-214 67 -299 153q-92 91 -92 249zM219 1139q0 -98 55 -153q52 -54 230 -113v520q-119 -5 -199 -72q-86 -73 -86 -182zM577 45q125 17 211.5 96t86.5 219q0 116 -69 183q-62 59 -229 112v-610z" />
<glyph unicode="%" horiz-adv-x="1610" d="M62 1080q0 100 52 190.5t144.5 139.5t190.5 49t190.5 -49t144.5 -139.5t52 -190.5q0 -99 -50.5 -188.5t-143 -140t-193.5 -50.5q-100 0 -192.5 50.5t-143.5 140t-51 188.5zM202 1128q0 -31 4 -62q13 -92 55.5 -173.5t106.5 -124.5q57 -40 114 -40q7 0 13 1q63 3 115 53 t73 136q13 54 13 111q0 32 -4 65q-12 93 -56 175.5t-107 124.5q-58 38 -115 38h-11q-61 -3 -113 -52t-73 -135q-15 -58 -15 -117zM297 -29l940 1461h84l-938 -1461h-86zM774 359q0 99 52 189.5t144.5 140t190.5 49.5q97 0 190 -49.5t145 -140t52 -189.5q0 -100 -50.5 -189.5 t-143 -139.5t-193.5 -50t-193 50t-143 139.5t-51 189.5zM914 406q0 -31 4 -62q13 -92 55.5 -173.5t106.5 -124.5q59 -39 116 -39h11q63 3 115 53t73 136q13 54 13 111q0 32 -4 65q-12 93 -56 175.5t-107 124.5q-58 38 -115 38h-11q-61 -3 -113 -52t-73 -135 q-15 -58 -15 -117z" />
<glyph unicode="&#x26;" horiz-adv-x="1683" d="M152 520q0 161 76 266.5t225 151.5q-42 61 -62.5 116t-20.5 111q0 105 77 197t182 92q68 0 142 -39q9 -6 18 -6q23 0 38 45h46l96 -281h-46q-55 133 -155 178q-85 37 -141 37q-65 0 -106 -45.5t-41 -117.5q0 -131 102 -267l531 -670q98 146 121 244q17 78 17 130 q0 97 -62 97h-90v50h443v-50h-90q-95 0 -145 -227q-31 -132 -155 -292q109 -136 248 -136h16q143 17 192 128l49 -1l-103 -231h-160q-56 0 -139 25t-167 132q-67 -74 -175 -123.5t-241 -49.5q-229 0 -374.5 150.5t-145.5 385.5zM256 589q0 -91 35.5 -181.5t101.5 -164.5 q72 -83 165 -127t194 -44q88 0 169 33.5t130 90.5l-554 683q-118 0 -179.5 -86t-61.5 -204z" />
<glyph unicode="'" horiz-adv-x="346" d="M101 1500q0 37 20.5 57t59.5 20t60.5 -19.5t21.5 -56.5q0 -8 -4 -34l-62 -359h-30l-62 359q-4 23 -4 33z" />
<glyph unicode="(" horiz-adv-x="758" d="M252 601q2 277 99.5 530t268.5 442h80q-172 -242 -230 -438q-57 -193 -57 -523v-22q0 -330 57 -522q58 -196 230 -438h-80q-171 189 -268.5 441.5t-99.5 529.5z" />
<glyph unicode=")" horiz-adv-x="758" d="M58 -370q172 242 230 438q57 192 57 522v22q0 330 -57 523q-58 196 -230 438h80q171 -189 268.5 -442t99.5 -530q-2 -277 -99.5 -529.5t-268.5 -441.5h-80z" />
<glyph unicode="*" horiz-adv-x="1024" d="M218 1333q0 17 6 36q11 35 36 53q17 12 34 12q9 0 18 -3q20 -6 74 -62q47 -49 112 -75q-4 71 -37 130q-37 66 -37 84q0 32 23.5 51.5t62.5 19.5q37 0 61.5 -18t24.5 -47q0 -21 -36 -89q-33 -61 -37 -130q66 25 113 75q51 55 69 61q11 3 21 3q18 0 35 -10q26 -17 38 -53 q6 -19 6 -36q0 -15 -4 -28q-10 -30 -38 -38q-6 -2 -19 -2q-25 0 -76 9q-28 5 -55 5q-41 0 -81 -11q44 -55 105 -83q68 -32 79 -47q13 -18 13 -38q0 -9 -2 -17q-8 -30 -39 -53q-29 -22 -59 -22q-1 0 -1 1q-31 0 -48 23q-12 17 -22 94q-10 67 -47 125q-38 -58 -46 -124 q-9 -75 -20 -90q-19 -25 -49 -27h-5q-28 0 -57 21q-30 21 -39 51q-4 10 -4 20q0 17 11 32q13 17 83 51q61 29 105 82q-41 11 -80 11q-27 0 -53 -5q-54 -11 -78 -11q-9 0 -14 2q-30 9 -41 38q-6 13 -6 29z" />
<glyph unicode="+" d="M87 647v140h350v369l1 1h139v-370h349l1 -1v-139h-350v-370h-140v370h-350z" />
<glyph unicode="," horiz-adv-x="557" d="M119 91v42l119 125q44 0 88.5 -65.5t44.5 -151.5q0 -109 -71 -226.5t-139 -117.5v43q73 43 87 190q0 119 -129 161z" />
<glyph unicode="-" horiz-adv-x="670" d="M116 437v83q0 29 41 29h356q41 0 41 -29v-83q0 -28 -40 -28h-358q-40 0 -40 28z" />
<glyph unicode="." horiz-adv-x="557" d="M129 136q0 15 16 31l82 84q15 14 29 14q13 0 31 -16l80 -86q12 -16 12 -29q0 -15 -14 -31l-80 -88q-20 -20 -29 -20q-16 0 -29 14l-88 101q-10 13 -10 26z" />
<glyph unicode="/" horiz-adv-x="569" d="M13 -50l541 1484h80l-541 -1484h-80z" />
<glyph unicode="0" d="M77 717q0 194 57.5 372t160.5 274t212 96q108 0 211 -96t161 -274t58 -372t-56.5 -370t-159 -274t-214.5 -98t-214.5 98t-159 274t-56.5 370zM232 814q0 -62 5 -125q14 -180 61.5 -340t118.5 -244q65 -78 129 -78q6 0 12 1q70 7 127.5 104.5t81.5 265.5q15 107 15 220 q0 62 -5 126q-14 181 -62.5 343t-119.5 244q-65 76 -128 76q-6 0 -11 -1q-68 -7 -126 -102.5t-82 -264.5q-16 -110 -16 -225z" />
<glyph unicode="1" d="M218 1208v50q292 63 327 176h50v-1149q0 -235 103 -235h96v-50h-560v50h96q103 0 103 235v794q0 129 -117 129h-98z" />
<glyph unicode="2" d="M114 0l1 50q607 675 607 986q0 148 -86 245t-186 97q-170 0 -275 -131h-22v49q39 50 115 104t185 54q183 0 306.5 -121t123.5 -297q0 -262 -627 -916h422q130 0 209 112h49l-103 -232h-719z" />
<glyph unicode="3" d="M83 105v100h49q0 -83 86 -133t217 -50q151 0 218 116.5t67 280.5q0 104 -44.5 205.5t-176.5 148.5v19q81 45 144 120.5t63 209.5q0 110 -55 189.5t-166 92.5q-68 0 -123.5 -45t-55.5 -111h-42v159q0 20 73.5 33.5t155.5 13.5q155 0 257 -84t102 -249q0 -87 -61 -166 t-193 -139q93 -14 195 -134.5t102 -278.5q0 -163 -144 -294t-325 -131q-152 0 -247.5 39t-95.5 88z" />
<glyph unicode="4" d="M43 338v35l660 1061h34v-996h19q133 0 193 132h49l-103 -232h-158v-171q0 -117 72 -117h76v-50h-442v50h76q81 0 81 120v168h-557zM176 438h424v686z" />
<glyph unicode="5" d="M77 99v106h46q0 -88 86 -135.5t217 -47.5q151 0 217.5 116.5t66.5 347.5q0 159 -110 265t-285 106q-40 0 -86 -5l144 582h396q103 0 112 52h50l-63 -172h-429l-104 -415q226 0 388 -124.5t162 -300.5q0 -234 -143.5 -365t-324.5 -131q-152 0 -248 39q-92 37 -92 82z" />
<glyph unicode="6" d="M77 510q0 320 209 634.5t515 314.5v-48q-177 -12 -326.5 -179.5t-233.5 -467.5q96 93 266 93q108 0 211 -57t161 -162.5t58 -221.5t-56.5 -220.5t-144 -162.5t-169.5 -58q-243 0 -366.5 162.5t-123.5 372.5zM232 469q0 -153 95.5 -305.5t230.5 -152.5q101 0 163 98.5 t62 247.5q0 203 -100 333.5t-216 130.5q-91 0 -163 -101.5t-72 -250.5z" />
<glyph unicode="7" d="M96 1202l103 232h719l-1 -50q-370 -866 -370 -1205q0 -129 67 -129h117v-50h-411v50h67q72 0 72 131q19 296 278 1133h-399q-133 0 -192 -112h-50z" />
<glyph unicode="8" d="M77 403q0 112 57.5 214.5t160.5 158.5q41 21 82 35q-24 9 -48 21q-86 44 -133 123t-47 166t48 167t133.5 123t176.5 43q90 0 176 -43t134 -123t48 -167t-47 -166t-132 -123q-25 -13 -50 -21q42 -14 82 -35q103 -56 161 -158.5t58 -214.5t-56.5 -213.5t-159 -158 t-214.5 -56.5t-214.5 56.5t-159 158t-56.5 213.5zM235 422q0 -18 2 -35q14 -104 61.5 -196.5t118.5 -140.5q64 -44 128 -44h13q70 4 127.5 60t81.5 153q15 62 15 127q0 36 -5 73q-11 112 -73.5 212.5t-231.5 153.5q-114 -21 -181 -157q-56 -115 -56 -206zM278 1165 q0 -28 4 -57q12 -80 51.5 -152t218.5 -126q121 25 156 124q27 75 27 140q0 20 -3 39q-12 81 -52.5 154t-99.5 110q-55 33 -106 33h-9q-57 -3 -105.5 -46t-68.5 -119q-13 -49 -13 -100z" />
<glyph unicode="9" d="M77 1018q0 116 56.5 220.5t144 162.5t169.5 58q243 0 366.5 -162.5t123.5 -372.5q0 -320 -209 -634.5t-515 -314.5v48q177 12 326.5 179.5t233.5 467.5q-95 -93 -266 -93q-108 0 -211 57t-161 162.5t-58 221.5zM232 1077q0 -203 100 -333.5t215 -130.5q91 0 163.5 101.5 t72.5 250.5q0 153 -96 305.5t-231 152.5q-101 0 -162.5 -98.5t-61.5 -247.5z" />
<glyph unicode=":" horiz-adv-x="557" d="M129 136q0 15 16 31l82 84q15 14 29 14q13 0 31 -16l80 -86q12 -16 12 -29q0 -15 -14 -31l-80 -88q-20 -20 -29 -20q-16 0 -29 14l-88 101q-10 13 -10 26zM129 829q0 15 16 31l82 84q15 14 29 14q13 0 31 -16l80 -86q12 -16 12 -29q0 -15 -14 -31l-80 -88 q-20 -20 -29 -20q-16 0 -29 14l-88 101q-10 13 -10 26z" />
<glyph unicode=";" horiz-adv-x="557" d="M119 91v42l119 125q44 0 88.5 -65.5t44.5 -151.5q0 -109 -71 -226.5t-139 -117.5v43q73 43 87 190q0 119 -129 161zM129 828q0 15 16 31l82 84q15 14 29 14q13 0 31 -16l80 -86q12 -16 12 -29q0 -15 -14 -31l-80 -88q-20 -20 -29 -20q-16 0 -29 14l-88 101q-10 13 -10 26 z" />
<glyph unicode="&#x3c;" d="M87 674v83l840 484v-167l-625 -359l625 -355v-167z" />
<glyph unicode="=" d="M87 491v140h840v-140h-840zM87 803v140h840v-140h-840z" />
<glyph unicode="&#x3e;" d="M87 193v167l625 355l-625 359v167l840 -484v-83z" />
<glyph unicode="?" horiz-adv-x="748" d="M132 1266v64q128 104 242 104q132 0 212 -68t80 -182q0 -69 -32.5 -140t-124.5 -186q-90 -113 -141.5 -187.5t-51.5 -142.5q0 -63 35 -189h-47q-50 138 -50 211q0 109 116.5 312t116.5 309q0 82 -47 129t-130 47q-84 0 -178 -81zM207 136q0 15 16 31l82 84q15 14 29 14 q13 0 31 -16l80 -86q12 -16 12 -29q0 -15 -14 -31l-80 -88q-20 -20 -29 -20q-16 0 -29 14l-88 101q-10 13 -10 26z" />
<glyph unicode="@" horiz-adv-x="2019" d="M100 508q0 242 124 464.5t345.5 342t456.5 119.5q362 0 609 -230t247 -566q0 -270 -176 -439q-175 -168 -346 -170q-63 1 -100.5 18t-61.5 54q-29 -37 -82 -64.5t-133 -27.5q-144 0 -256.5 100.5t-112.5 233.5q1 87 53 166.5t132.5 115t173.5 49.5q67 16 110 42.5 t43 74.5q-2 69 -41 125t-129 56q-72 0 -121.5 -59t-50.5 -125h-45v159q0 20 72 40q73 20 178 20q109 -2 193.5 -64.5t84.5 -157.5v-589q0 -117 94 -117q185 35 267 191.5t82 382.5q-20 335 -232 540q-197 188 -480 188q-205 0 -392.5 -137.5t-269.5 -355.5 q-67 -178 -67 -361q0 -313 129.5 -511.5t305 -290.5t318.5 -92q274 0 575 208v-75q-263 -184 -571 -184q-240 0 -461 122.5t-343 342t-122 461.5zM753 343q0 -107 64 -194t183 -87q97 5 126 167v476q-54 -63 -154 -83q-83 -10 -151 -80t-68 -199z" />
<glyph unicode="A" horiz-adv-x="946" d="M-260 713q9 42 185 181q57 40 248 140q88 198 248 377q268 296 346 296q0 -6 14 -12h15q60 16 73 16q40 0 88 -70l4 -20q-88 -118 -146 -296q-19 -106 -29 -135q0 -4 5 -4q-14 -88 -14 -144v-66q0 -4 -5 -4q5 -8 5 -12q0 -36 9 -103q0 -4 -5 -12q0 -83 64 -353 q97 -242 136 -312q23 -47 151 -247q0 -11 34 -86h-5q-11 0 -15 21h-5q0 -17 -24 -17q0 9 -10 9q0 -6 -14 -13q0 7 -20 17q-5 -8 -5 -13q5 -8 5 -12h-5q-82 52 -87 74l5 25l-25 28v-4q10 -17 10 -24h-10q-138 161 -219 381q-58 129 -87 284q-19 0 -49 340l-34 9 q-81 0 -248 -54q-68 -91 -68 -431v-29q0 -35 5 -74q-5 -61 -20 -61h-14q-93 11 -93 37h-24q-39 15 -39 135q0 175 19 288q-9 0 -9 8q-31 0 -171 -127q-42 -58 -78 -58h-4q-27 16 -69 90q-19 19 -19 37zM441 1128q0 -8 14 -8l156 16l29 222v4q-53 0 -180 -189q-5 -20 -19 -20 v-25z" />
<glyph unicode="B" horiz-adv-x="1028" d="M-117 540h10q24 -35 53 -35q0 -11 29 -23h10v4q0 4 -39 27q0 4 -5 12l-9 -4q-9 0 -25 34q-3 1 -24 35v11h5q19 -8 19 -19h10l-5 8v7h10q15 -28 15 -38l9 4q20 -8 20 -19q-5 -8 -5 -12q19 -8 19 -30l10 3h5q35 -32 83 -42q0 -7 53 -11q0 -5 34 -12q0 4 5 4 q-34 106 -34 298q0 36 15 153q0 4 -5 4q0 102 102 405q29 69 102 195v8h-5q-76 0 -233 -115h-5q-22 3 -68 111q-5 0 -5 4v8q94 100 238 137q198 61 312 61h53q170 0 311 -126q88 -82 88 -141q0 -100 -49 -184q-74 -109 -146 -156q-28 -18 -53 -46q-57 -35 -68 -35 q0 -6 -20 -15q0 -27 59 -42q160 -127 160 -184q10 -23 20 -68q0 -137 -185 -264q-7 -11 -93 -61q0 -28 -214 -69h-14l-10 4q0 -20 -107 -27q-15 0 -39 8q-9 -4 -15 -4q-48 0 -48 15l-25 -4q0 19 -53 31v4l5 7h-29q0 16 -20 16v7h5l49 -11l14 15q0 8 -63 31q-17 20 -136 46v7 h-5v-11q6 -21 83 -54v-11q-102 29 -102 80h4v8q-58 49 -58 61zM-63 544q1 -8 9 -8l5 8l-10 3h-4v-3zM-10 475l24 -4v8q-16 0 -24 3v-7zM48 387v8l25 -4v-8zM311 742q0 -173 44 -298h5q110 23 243 84q180 124 180 234v11q0 4 5 4q0 59 -107 76q-5 0 -5 4q-5 0 -5 -4l-78 8 q-218 -22 -272 -57q-5 0 -10 -62zM345 995q10 -1 10 -8q9 0 122 69q129 47 272 172q136 123 136 248v27q-79 65 -214 65h-19q-5 0 -39 -46q-95 -54 -209 -309q-44 -118 -59 -218z" />
<glyph unicode="C" horiz-adv-x="702" d="M5 815v10l15 31q-5 44 -15 56q0 23 15 45q-10 0 -10 10v6q2 10 10 10q0 -5 5 -5q0 74 102 325q35 58 35 61q0 16 56 116q9 0 41 66q71 107 117 158q0 11 5 20l10 -5l142 132q0 34 66 66q19 24 92 51q0 46 218 66q90 0 137 -91v-51q-5 -15 -30 -15l-31 5q-32 -14 -157 -36 q-272 -106 -462 -421q-81 -108 -158 -320q-51 -153 -51 -336q0 -114 71 -223q55 -51 92 -51h41q169 41 223 107q13 0 71 45h10v-10q-25 -21 -25 -25v-10q37 0 46 -26v-5l-16 -20q0 -6 36 -20l41 10v-10h-16l10 -16q-121 -147 -187 -147l5 -10q0 -37 -209 -61 q-96 24 -233 208q-78 116 -102 280q0 18 -10 30zM625 592q1 -11 10 -11h10v16h-20v-5z" />
<glyph unicode="D" horiz-adv-x="1450" d="M-3 1309v4q86 164 133 168q45 46 199 132q186 83 287 88q0 9 122 12q185 0 292 -80q60 0 245 -164q123 -132 123 -244q10 0 10 -32q0 -10 -5 -32q0 -4 5 -12q-12 -150 -46 -192q-20 -57 -56 -100q0 -24 -62 -100q-15 -37 -46 -56q0 -25 -138 -124q0 -9 -41 -32 q0 -12 -71 -52q0 -9 -82 -40q0 -4 -31 -20q0 -16 -46 -16l-25 4q0 -8 -10 -8q10 -13 10 -24l-31 -12h-5q-5 0 -5 4l-10 -4l-10 4v-4l5 -8l-11 -4l-30 4q0 -8 -11 -8l-10 4q0 -25 -97 -32h-20q-5 0 -5 4q-45 -5 -57 -12h-5q-10 0 -10 8l15 8h11l10 -4q0 6 20 12l21 -8v4 q-7 20 -16 20h-5l-20 -16h-56v8h-11l5 -8v-8h-10v4q0 5 -5 40l153 56q40 27 118 60q34 29 123 72q0 5 61 44q163 119 225 200q159 208 159 400q-21 140 -62 188q-90 107 -271 156q0 13 -117 28q0 -8 -11 -8l-30 4l-21 -8q-5 0 -5 4q-9 0 -107 -16v4q-131 -43 -164 -60 q0 -4 -61 -24q-87 -55 -113 -80q-17 -2 -40 -32q-15 0 -62 -64q-71 -71 -77 -104h-10q-56 37 -56 68q-7 0 -26 28q-20 0 -20 8zM23 305l20 24l10 -12q-10 0 -25 -20zM43 385l87 96q219 295 235 372q8 0 21 44q70 172 97 420q10 89 10 144q5 8 5 12h10v-12h10v20q0 6 16 12 q10 -4 15 -4q2 8 10 8h5q18 0 36 -12l26 4q51 0 51 -76v-68q-15 -204 -72 -396q-61 -171 -102 -224q-29 -74 -71 -120q-9 -7 -26 -44q-20 -11 -46 -72q-16 0 -66 -60q-13 -8 -26 -8v-20q-29 -26 -41 -52q-51 -27 -51 -40h-15l5 20q-7 0 -51 -40q-11 0 -11 8l11 12 q-16 0 -16 4q21 17 21 28q0 4 5 4l-5 8l5 8q-8 4 -31 4v8l5 28h-10q0 -19 -10 -28q-36 5 -36 12zM84 297v4q2 8 10 8h5v-8q-5 0 -15 -4zM130 361l10 -4v12q-10 -1 -10 -8zM646 337q8 16 16 16h10q10 -1 10 -8q-26 -8 -36 -8zM805 505h5q7 0 15 12h-5q-7 0 -15 -12zM979 589 h10q-5 8 -5 12h-5v-12z" />
<glyph unicode="E" horiz-adv-x="1208" d="M-6 344v4q6 33 6 41q-6 15 -6 27q60 59 214 91q40 0 156 170q104 136 104 173q34 80 34 102v4q-196 14 -196 23v3q12 60 12 80v30q16 23 46 23l46 -8q23 4 40 4v-4l12 4h12q13 0 23 -4q46 0 46 34l-6 23q0 12 6 19q-34 321 -81 321q-168 52 -168 75h-5q35 130 52 133 q336 -129 508 -129q90 -7 173 -7h104l99 15l34 -4l52 19l18 -8q105 30 167 30h6q0 -6 -12 -22q10 0 18 -19q-23 -25 -23 -42h23q1 -7 11 -7h6l17 7h6q12 -1 12 -7q-67 -38 -411 -95q-95 -15 -213 -15q-179 4 -191 8l-23 -8q35 -202 35 -253l-6 -45q6 -19 23 -19q47 0 208 4 q11 3 17 3l12 -11v-11q28 -15 52 -15l6 -8v-4q0 -13 -24 -30q21 0 76 -15q0 5 17 11h6q11 -1 11 -7q0 -12 -173 -46l-133 -18v3l-121 -15q0 -5 -18 -11l6 -23q0 -28 -46 -109q0 -11 -40 -57q0 -11 -18 -26q0 -11 -17 -23l6 -19q-47 -22 -47 -64q-28 -27 -28 -57h5 q209 12 243 12l29 -4q11 4 17 4q23 -4 41 -4q5 0 5 4q155 0 457 -68l69 -27l6 -7q-23 -6 -23 -12q42 -11 52 -11q11 4 17 4v-4l-6 -8q26 -15 35 -15v8q20 -18 40 -19v-4q-11 -1 -11 -7q19 -2 40 -23q22 -1 35 -15q0 -12 -23 -12q-11 4 -17 4v-4l5 -7l-11 -4l-18 8h-5 q-56 -24 -64 -31h-11q0 16 -47 19l-40 15q-32 -3 -46 -3q-24 19 -249 49q-178 19 -254 19h-23q-17 0 -17 3l-29 -3h-87q-223 0 -555 -110q-21 -15 -34 -15q-58 0 -58 49zM1277 1583h23v8h-23v-8zM1421 1560q0 -5 23 -15h6q0 13 6 19h-6zM1438 1583h18q14 8 23 8l-6 19h-12 q0 -8 -23 -23v-4z" />
<glyph unicode="F" horiz-adv-x="637" d="M-3 296q30 47 64 168q59 112 139 466q15 53 25 183q-60 20 -60 90l10 49q-10 0 -10 10v59q0 10 15 10q52 -5 60 -5l10 15q5 112 5 139q0 5 5 15l-5 10l5 30q0 5 -5 5l5 24v45l5 30q-5 9 -5 14q5 43 5 70l-5 10q5 8 5 20v24q0 32 -65 65q-20 14 -20 20v34q0 34 5 60 q-5 25 -5 59q4 25 15 25h5q17 0 352 -134q126 -20 263 -25q122 5 193 15l20 -5q19 5 34 5l5 -10q-24 -26 -24 -39l34 -10q9 5 20 5h10v-10q-18 0 -40 -25q23 -6 25 -20l10 5h5q0 -20 10 -20q20 10 35 10q19 -7 19 -15q0 -21 -267 -64q-133 -10 -159 -10q-42 5 -64 5l-20 -5 q-19 5 -40 5h-10q-11 0 -19 -5q-115 21 -139 30q-20 -5 -20 -30v-54q0 -149 -10 -337l10 -5h109q5 0 5 -5q78 20 134 20l5 -10l-5 -30q0 -8 30 -25q-8 0 -15 -15v-10h29q-19 -22 -19 -24q5 0 5 -5l24 10l10 -15l10 5h5v-5q-71 -61 -312 -94q-50 0 -50 -30q0 -78 -84 -426 l-69 -209h-10l5 -9v-5q-26 -77 -84 -139h-5v10l5 10l-10 5h-5q0 -22 -30 -40l-5 10v10l10 15v10h-20v5h-10q0 -8 -44 -40q-5 10 -5 15q10 16 10 25q-13 9 -15 9l-30 -24h-5z" />
<glyph unicode="G" horiz-adv-x="1305" d="M-5 777q0 112 116 357q104 154 237 284q266 193 348 206q143 62 330 86h87q98 -9 98 -69q14 0 23 -56q0 -37 -243 -51q-375 -85 -567 -297q-185 -203 -226 -382q-29 -72 -29 -155v-52q0 -127 139 -163q39 -4 63 -4h24q5 0 5 -5q106 0 267 78q134 85 191 159q35 45 35 60 q-239 77 -313 180l6 31q0 3 -6 25q6 8 6 17q-9 0 -18 13v13q0 33 23 39q35 0 180 -77q181 -65 324 -65l151 17v-4q56 17 162 30q0 -22 -17 -39q26 -8 29 -17l-18 -17l6 -9l-12 -4v13q-4 0 -17 -13l6 -8l-12 -13l12 -5h23q13 7 75 18q11 -5 18 -5v-8q-48 -6 -81 -35 q-123 -38 -221 -60v4q-39 -12 -110 -25q-11 4 -17 4q-35 -21 -35 -90q-36 -136 -168 -215q-147 -108 -220 -121q-106 -43 -208 -43l-29 -4q-58 0 -174 52q-138 100 -179 202q-64 71 -64 223z" />
<glyph unicode="H" horiz-adv-x="1096" d="M-196 752v18q0 3 30 30q-4 0 -4 4q9 0 48 39q167 119 334 174q56 14 56 56q17 160 17 230q-8 286 -17 382q31 30 52 30q117 0 117 -52q5 -91 9 -104q0 -4 -4 -4l8 -70l-4 -9q9 -19 9 -56q0 -4 -5 -4l5 -9q0 -4 -5 -4l5 -22v-100q0 -9 -5 -17q0 -4 5 -4q-9 -50 -9 -174 q103 13 143 13h4q188 0 274 -26l8 44q0 4 -4 4l4 22v108q-3 243 -21 256v4q17 61 47 61h39q62 -21 70 -30q18 0 34 -282q0 -5 -4 -5l4 -21v-74q0 -25 -4 -70q0 -4 4 -4l-4 -30v-65q-17 -248 -74 -438q-39 -116 -52 -169q-15 -19 -34 -83l-44 -78q-31 -46 -48 -87 q-29 -32 -56 -47q0 -16 -17 -22q0 -13 -9 -13h-9q0 46 31 69v18h-9q0 -13 -22 -22q0 -9 -8 -9h-5v9h-4v-9q9 -1 9 -8v-5h-9v9h-13v-9h9v-26h-13l-9 5l-4 -9q4 0 4 -4l-13 -9h-17q-9 0 -9 9v13q7 6 26 60q-9 0 -9 9q13 25 35 95q42 60 113 282q78 269 78 360h-4 q-93 44 -230 44l-22 -5q-17 5 -35 5l-30 -5v5l-9 -5h-13q-117 0 -117 -73q0 -43 -82 -291q-69 -177 -126 -217q0 -13 -17 -26q0 5 -5 5q-15 -42 -39 -48l-4 9q9 0 9 8v5q-10 0 -18 4q0 -9 -8 -9h-5v9h9v26l-22 9l-52 -48h-4l-9 4l13 22h-17l-13 -9h-9v9q31 29 31 43 q39 47 39 70q25 33 73 164q10 0 39 109q39 99 39 147h-4q-130 -37 -325 -186l-44 -13q-13 12 -34 100q-9 0 -9 8zM43 314h13q8 0 8 9h-13q-8 -1 -8 -9zM73 288l9 5l4 -9l-9 -4zM138 297l9 -4l4 17h-9q0 -5 -4 -13z" />
<glyph unicode="I" horiz-adv-x="673" d="M-11 400q0 36 217 101q67 0 67 60q7 0 24 56q131 248 131 421q4 0 4 12q0 4 -4 4q19 136 19 273q-10 153 -34 153q-116 0 -241 100l-19 84h-5q4 52 15 52h9q20 0 169 -64q34 -8 87 -12l57 4q11 0 92 -8q88 8 96 8q25 -2 25 -20h53l14 -8q-4 -21 -29 -28q-10 -8 -14 -28 l9 -4q2 8 10 8q7 0 14 -12v-12q0 -18 -159 -52v-4q20 -98 20 -181l-5 -16l5 -8q-25 -411 -68 -477q-14 -47 -29 -69l5 -8q-83 -186 -106 -204v-4q24 -19 135 -52q17 -9 43 -53q34 -20 34 -24l-10 -4l-9 4v-4q19 -18 19 -20l-14 -8l-15 8l-19 -16h-48q-11 0 -20 4l-9 -4 q-42 8 -155 12q-167 -15 -260 -60q0 -8 -48 -8q-22 14 -53 108z" />
<glyph unicode="J" horiz-adv-x="1225" d="M5 776v42q2 9 11 9l29 -5q23 33 28 33l12 -14l-12 -14h17q8 0 35 33h11q13 0 17 -79h-6q23 -130 80 -195q51 -75 103 -97q36 -42 74 -42h17q134 0 296 135q0 8 74 102q59 75 125 356q23 119 23 162v10q2 9 11 9q0 5 -6 5q18 122 23 259q-5 144 -11 144q-224 0 -501 185 q-125 91 -125 116q14 15 22 41q0 5 -5 5q0 12 17 51q-6 9 -6 14l11 4h12q0 -6 62 -27q168 -118 319 -181l131 -46h57l29 4v-4l11 4h17q64 0 108 -23q0 19 23 19q10 0 34 -10l12 5q14 0 39 -14l-5 -9v-9h23l62 27l6 -9q-29 -17 -29 -23h6q10 5 23 5l6 -10q-46 -21 -46 -27v-5 q17 0 17 -9q-8 0 -17 -14l34 -19q-93 -37 -125 -37h-29q0 -14 -5 -32q5 -38 11 -47q0 -5 -6 -13q6 -41 6 -47q-6 -127 -11 -139q0 -4 5 -4q-4 -65 -17 -65l6 -33q-11 -106 -23 -157q6 -9 6 -14q-68 -303 -120 -398q0 -25 -74 -130l-45 -70q-79 -95 -108 -97q0 -15 -86 -37 q0 -20 -188 -51q-118 0 -199 69q-131 72 -131 116q-158 159 -165 292zM85 809q1 -10 11 -10l6 10q-6 9 -6 13q-11 -1 -11 -9v-4zM586 341h34q0 9 -11 9q-10 -5 -23 -5v-4z" />
<glyph unicode="K" horiz-adv-x="1039" d="M-81 355q5 9 5 15h10v-5q0 -10 -10 -10h-5zM-60 360l10 5l-5 10v5q0 5 5 5l-5 11q23 42 41 56h5v-10q10 0 10 10l-10 16q144 235 242 520q118 434 118 643q0 5 -5 5l5 36v98l-5 31q5 9 5 26v51l11 16v10h-11v5h16l-5 31q3 72 15 72q2 -10 10 -10q0 41 31 41 q11 -13 11 -21h5l15 11q67 0 67 -67l16 -191l-6 -51q0 -6 6 -16l-11 -139q0 -5 5 -5q-20 -174 -51 -360h5q127 49 309 165q138 92 221 164q24 0 67 67q17 11 31 11q31 -18 31 -26v-5h-10v-11q5 0 15 -5q16 13 16 26h10l10 -5l-31 -52l16 11h15v-11l-15 -25h5q23 8 51 36h16 v-16q-8 0 -134 -149q-297 -246 -448 -304v-5q0 -13 88 -149q82 -136 195 -453q0 -13 16 -67q0 -5 -5 -5l5 -26v-10l-5 -11q15 -3 15 -41v-5q0 -10 -10 -10l5 -11v-20l-5 -31q5 -10 5 -15h-5q-11 0 -16 36h-5v-47q26 -1 26 -15h-5l-16 10l-10 -36q5 -10 5 -15h-5l5 -11 q0 -10 -10 -10h-5q-11 0 -11 10v16l11 15v57q-16 17 -16 26h-5v-21h-10q-10 0 -10 15h-11l-5 -46l-15 10q-7 -25 -16 -25q-7 0 -15 15l-11 -5h-5l5 26q-20 10 -20 31h5q-49 291 -165 519q-48 116 -144 217h-10q-67 0 -67 -78q-8 0 -31 -87q-33 -43 -46 -113q-25 0 -36 -62 q-14 0 -26 -36h-5q5 -10 5 -16l-41 -72q5 0 5 -5q-12 0 -98 -144q-15 -25 -41 -41h-5v5l15 26h-10q-23 -32 -46 -36q0 -7 -36 -31q-8 0 -16 15l21 31v5h-21q0 -11 -21 -20h-5v5l5 10h-5q-9 -5 -20 -5zM-24 360q10 0 10 10v5q-10 -2 -10 -10v-5zM7 355q7 0 15 15h-5 q-10 -2 -10 -10v-5zM12 396h5q10 0 10 10v10h-10zM32 411q6 0 16 -5q0 5 5 15h-21v-10zM804 159l11 5v-15q-11 0 -11 10zM861 262q2 -10 10 -10q11 0 11 10l-16 10zM882 210v6h5q10 -2 10 -11l-10 -5zM1098 1472q8 0 20 -16v21q-10 0 -10 10q-10 -2 -10 -10v-5zM1113 1492 q19 0 26 -20q15 0 15 25q-10 0 -10 16l-15 -11l-11 6l-5 -11v-5zM1180 1611h5q11 -2 11 -11v-10h-11zM1191 1621v10q7 0 30 16l6 -11l-21 -15h-15zM1237 1559l15 10h5v-10q0 -10 -10 -10t-10 10z" />
<glyph unicode="L" horiz-adv-x="604" d="M8 382q1 19 71 56q0 15 127 35q13 25 20 26l16 -11h15q10 0 10 11q0 10 -10 10q0 -10 -10 -10h-15q0 15 -6 35q21 0 21 46l-15 10q-16 -13 -16 -30h-10l-10 5q0 -12 -15 -31q-10 0 -36 10q0 34 36 87q0 31 127 259l-5 10q57 125 76 213q10 0 91 341q-5 10 -5 15 q17 89 26 117q0 5 -5 5q10 66 10 81q0 5 -5 5l5 26v50l5 31l-5 10q6 65 10 71l-5 10q4 143 20 143l-5 10q0 7 15 15h15l41 -25q2 10 10 10q66 -20 66 -87q5 -1 5 -50v-82q0 -18 -5 -45q5 -9 5 -21q0 -7 -10 -56l5 -20l-10 -81l5 -10q-66 -420 -157 -666q-13 -34 -26 -41 l5 -20q-10 -21 -10 -30h-5l-10 5v-10q5 -10 5 -16l-10 -5q0 5 -5 5l5 -25q-37 -25 -41 -61q-25 -16 -45 -86q-6 0 -26 -36v-5h10v-10h-5l-10 5l-56 -86v-6q70 0 122 11q10 -5 15 -5l26 5l20 -5l26 5l10 -5q9 5 20 5l10 -5l10 5l10 -5l31 5q9 0 30 -11q6 0 6 6 q220 -26 350 -51q24 -14 122 -41v-5l10 5q153 -54 153 -76l10 5h5q94 -38 96 -51q-10 -5 -15 -5h-15v-5l-20 25q-11 -1 -11 -10v-15h26v-10q-28 0 -56 15l-10 -5q-10 5 -16 5h-5v-5q15 0 66 -30h6v-16h-26v-10q-39 0 -112 36l-142 35q-10 -5 -15 -5q0 8 -15 15h-26v-10h-5 q-10 0 -10 16q-36 -6 -36 -16q6 0 6 -5l-11 -5q-71 12 -71 36h-25v-5q20 0 20 -11q-12 -10 -51 -15q-53 17 -66 26l-10 -5h-10q-26 0 -31 15l-45 -10q0 10 -10 10h-21q-10 -2 -10 -10l-66 10q-5 0 -5 -5q-5 0 -15 5q-51 -5 -76 -5v5l-11 -5h-15q-5 0 -5 5q-10 -5 -15 -5 q-157 0 -325 -77q-10 11 -16 67h-5l5 25v10q-30 27 -30 46zM191 575h10q0 10 10 10v20h-10q-10 -1 -10 -10q10 -1 10 -10h-10v-10zM1288 214h15v-10h-5q-10 0 -10 10zM1380 275l10 5l5 -10v-5h-5q-10 0 -10 10z" />
<glyph unicode="M" horiz-adv-x="1479" d="M-17 410v11q0 10 13 10v22q0 14 9 32q0 5 -5 16q5 21 5 37q-9 18 -9 32q21 133 39 133v11h-8v11q19 19 26 80q7 0 17 21v5l-4 11l9 5q0 -5 4 -5q13 38 13 42l-4 11l30 69l-4 11q0 33 35 80v27q14 0 87 202q11 5 39 80q25 38 70 144l66 107q34 58 78 90h26q12 -26 18 -26 q82 -42 91 -59q-39 -180 -39 -282q0 -317 87 -816h5q91 122 187 314q51 111 66 134h4l13 -11q11 11 18 11l-5 10q5 0 22 38v10l-4 11q8 5 13 5l-4 11v16q0 8 13 16q8 0 8 -16h9v5q-4 11 -4 16q2 0 48 27h4q0 -37 13 -37h5q0 14 21 37v-37q-40 -202 -174 -459q0 -11 -92 -176 q-33 -30 -87 -122q-10 0 -70 -64h-9q-64 76 -104 106q-5 11 -5 16q35 59 35 64q-17 0 -17 11v11q0 10 13 10q-26 16 -26 32h-9v-10h-9q-65 180 -65 293q17 8 17 16q-30 19 -30 74q0 10 8 27q-13 0 -17 27l4 10q-13 64 -13 91q0 12 5 21q-7 18 -18 128q0 6 5 6l-5 26v54 q0 5 5 5q-9 24 -9 69q-9 0 -57 -101q-50 -93 -157 -384q-52 -152 -100 -416q-9 -67 -31 -96q0 -42 -26 -42q0 19 -18 117v5h-4q0 -20 -13 -42v-32h-17q0 16 -9 16q0 -6 -5 -6v6l5 26q-5 0 -5 6l-8 -6q-9 0 -9 11zM555 543h8v6q-4 10 -4 16h-4v-22zM1035 -443q0 8 13 16h4v-5 q0 -8 -13 -16h-4v5zM1043 -363q7 0 18 54l30 48q0 -16 22 -16l-13 -91q10 0 13 -37l-17 -16v5l4 37q-7 0 -17 11q-9 -5 -14 -5l-8 5q-9 -5 -13 -5zM1074 -309q1 -11 9 -11l4 27q-6 0 -13 -16zM1100 -214l9 6l4 -11l-9 -5zM1109 -203q78 258 109 443q5 0 9 21q0 5 -5 5 q13 85 26 213l-4 11q9 27 9 37l-5 22l13 128v74q0 12 -4 22l4 10q-4 70 -4 112v27l4 26q-13 25 -30 155q0 48 -66 251l-48 149v10q1 12 66 75q8 -5 17 -5q0 8 18 21h4q67 -61 87 -144q96 -350 96 -490q-4 -10 -4 -22q9 -1 9 -10v-48q0 -63 4 -128q-4 -25 -4 -75 q-9 -1 -9 -10l4 -11q-8 -43 -8 -101v-6q0 -5 -5 -5l5 -11q0 -5 -5 -5l5 -11v-5q0 -11 -9 -11l4 -26v-6q-17 -145 -26 -154v-6q0 -12 5 -21q-18 -92 -31 -128q0 -5 4 -5q-52 -270 -91 -331h-5v16q0 8 18 16l-5 11q18 82 35 133v6l-4 26h13v16l4 27l-8 5l-9 -5q9 -17 9 -27 q-10 0 -22 -32l4 -10q0 -15 -8 -32q4 0 4 -6q-39 -39 -39 -48v-16h-5l9 -16q-17 -5 -17 -21l4 -27q-23 -23 -48 -74q-9 -5 -13 -5l4 -11q-11 -48 -26 -59h-4v6q0 8 21 64h-4q-39 -43 -44 -43q-8 0 -8 11v21q11 32 17 32q0 -6 5 -6v11h-14l-8 -5v5zM1117 -336l18 16l4 -11 l-17 -16zM1135 1247v5q1 11 9 11v-16h-9zM1157 -144v-6q9 -11 13 -58q10 0 13 58q-20 0 -26 6zM1196 -293q7 21 13 21h9v-5q-10 -32 -18 -32q-4 10 -4 16zM1227 -224q11 40 21 42v-21q-6 0 -17 -26h-4v5zM1305 101l9 -5v16q-9 -2 -9 -11zM1309 128h5q9 0 22 74v6h-9v-16 l-9 5q-9 -43 -9 -69zM1331 250h9v16h-9v-16zM1331 309l9 -5q13 5 13 31q-6 0 -22 -26z" />
<glyph unicode="N" horiz-adv-x="1196" d="M-5 641l5 9q-5 8 -5 18v5q1 9 9 9l-4 10q0 5 4 14q-4 25 -4 42q8 55 23 97l-5 9l42 182q9 51 23 51l-4 9v14q22 46 32 56q-4 9 -4 14q14 22 18 46l-4 10q21 43 41 130q75 131 103 195q12 2 74 102q18 21 60 52q11 0 19 -5q8 5 19 5q0 -26 97 -33q67 -91 131 -270 q74 -261 102 -418q18 -120 28 -154q0 -26 9 -185q58 67 102 232q19 72 28 74l-4 10v4q16 18 18 47l-5 9q14 38 14 42q-4 9 -4 14q28 0 65 353q0 5 -5 5l5 23v61q0 23 -9 55q2 0 27 24h33q9 -12 74 -56q19 -40 19 -177q0 -193 -177 -804q-101 -206 -251 -386l-32 -23h-10 q-30 20 -37 42q-58 26 -74 51l37 46l-9 14q20 13 28 65l9 5h5v-9h4v9q-4 0 -4 5q26 0 32 60q19 0 19 14v5l-10 13q52 11 52 70q-10 0 -10 10q-65 -28 -65 -56h-9q0 27 -19 46v5l19 51l-9 5q0 4 4 4q-9 35 -9 38h5l-5 9v9q0 5 5 5q-10 12 -24 204q-4 0 -4 10l4 9l-18 88 q4 8 4 19l-32 125q-5 0 -5 5q-28 150 -51 191q0 4 5 4q-33 108 -79 210q-20 0 -103 -145q-75 -133 -158 -525q-60 -272 -60 -391v-4l-9 -14v-5l4 -23q-9 -1 -9 -9v-19l5 -28l-5 -9q5 -8 5 -19v-4q0 -5 -5 -5q0 -5 5 -5q-6 -41 -19 -41l-9 13q6 0 14 14q-14 0 -14 10v4h9v5 l-14 19q0 4 5 4q-10 16 -10 28q10 0 10 9l-14 19q6 0 14 14v5q-39 -28 -56 -28l-5 9v19l5 28q-5 9 -5 13h-14q0 -23 -9 -23l-9 14q12 47 18 47q5 -8 5 -24h9v19q0 33 -18 33v9h14v14l-10 -5h-4q-7 0 -14 19l9 28q-9 0 -14 28zM41 366v5l5 9q-5 8 -5 19q5 0 5 4q21 -9 23 -18 v-5q0 -6 -14 -14h-14zM641 436v9q2 10 10 10q9 -2 9 -10v-9q0 -9 -9 -9q-10 0 -10 9zM651 478v4q1 10 9 10h5l4 -19l-9 -4q-9 0 -9 9z" />
<glyph unicode="O" horiz-adv-x="1150" d="M-1 812q5 56 5 103l-5 20q34 260 113 389q92 145 148 192q98 102 226 138h25q18 0 84 -10l10 15q-5 8 -5 20l93 34l30 -5l10 5q211 -55 211 -118q48 -19 84 -89q13 0 54 -108l-5 -10q15 -43 20 -118q10 0 10 -49h-5q0 -5 5 -5q-10 -109 -15 -109q0 -4 5 -4l-5 -20l5 -20 q-46 -194 -59 -226l-99 -168l-123 -143q-228 -226 -477 -226q-113 15 -182 84q-67 72 -143 330q-5 51 -15 98zM137 802q0 -230 88 -271q27 -25 124 -39l9 5h35q152 28 221 98q22 0 109 94q100 84 123 138q93 136 93 152q50 145 50 178l9 103q0 161 -113 236q-64 34 -123 40 q-120 -16 -197 -59q-63 -45 -123 -54q-90 -47 -177 -183q-128 -201 -128 -438z" />
<glyph unicode="P" horiz-adv-x="939" d="M-38 1739q0 17 127 132q213 161 425 161q32 0 83 5q197 0 411 -176q0 -15 10 -15l-5 -9v-5q107 -101 107 -274v-15q0 -36 -88 -210q-42 -47 -112 -127q-45 -50 -186 -151q-148 -88 -156 -88q-51 -25 -69 -25q-24 25 -24 44v10q12 0 15 19q-35 6 -35 25l5 10q-5 9 -5 14 l15 10q9 -5 20 -5q1 10 9 10l-4 10q55 46 117 78q49 41 49 54q52 10 205 171q117 149 117 259v15q-63 119 -278 190q-102 15 -142 15h-59q-45 0 -73 -20l10 -161q0 -5 -5 -5l5 -24v-10q0 -542 -147 -948q5 -9 5 -20q-17 -10 -49 -127q-71 -155 -102 -200l-10 4q0 -4 -5 -4 l5 -10v-10q-1 -9 -44 -34q0 -10 -25 -10l-5 10v29l15 -10q0 15 15 15v5q0 10 -25 10q0 5 5 5l-5 9q0 10 15 10v10h-10q-24 -34 -39 -34l-5 9q0 10 25 10v5q0 10 -10 10q0 -10 -10 -10l-10 15l10 14v5q-15 0 -29 25q29 0 171 425q26 117 34 117l-5 10q49 193 83 430 q0 4 -5 30l15 107v69q0 11 5 19q-5 10 -5 15q7 24 20 24l-5 20l14 78l-5 10q10 16 10 29v10q-77 0 -293 -191h-20q-17 26 -34 39l10 15q-38 49 -44 49zM50 448l15 -9h5q0 19 14 53h-10q-7 0 -19 -19v-5l5 -10q-10 -1 -10 -10zM114 439q1 -10 9 -10q0 5 5 15l-10 4h-4v-9z " />
<glyph unicode="Q" horiz-adv-x="1362" d="M-5 803q5 9 5 14l-5 9q11 24 11 37q-6 9 -6 14q13 0 39 111q7 31 16 41q0 5 -5 5q0 75 191 356q97 114 181 194q191 129 262 129h28l16 -9q26 0 55 4l44 -9q0 5 5 5q2 -9 11 -9h16l22 13q13 -17 121 -32q78 -24 164 -106q25 0 32 -28l-10 -5q-6 9 -6 19h-22q1 -10 49 -37 q26 -37 50 -51q-6 -9 -6 -14q6 -9 6 -14q-11 -1 -11 -9v-14q12 0 16 -27q17 0 17 -10h-11v-9q32 0 32 -46q0 -12 11 -23v-5l-11 -14v-41q0 -39 -16 -111q5 -9 5 -14q-19 0 -43 -37q-6 0 -6 -4q17 0 17 -10l-11 -4l5 -10l-5 -9q11 -1 11 -9q0 -9 -17 -9l6 -23v-19 q-22 -53 -60 -97q-26 -43 -50 -102q-177 -197 -306 -300l-175 -101q-6 -9 -6 -19q40 -105 203 -254q0 -7 11 -18v-28h5l22 9v-5q-11 -15 -11 -23l11 -4l-5 -10v-4q27 -1 27 -14h-44q-18 13 -65 23q-11 17 -33 23l-11 -4q-75 9 -159 106l-104 148q-49 -10 -93 -10 q-27 0 -27 10l-38 -5h-17q-131 30 -131 69q-43 35 -153 222q-39 120 -44 208zM154 724q0 -194 115 -249q38 -9 43 -9h17q98 0 136 27q0 5 -5 5q5 55 11 55l-6 10v4l11 14v5q0 10 -5 18q11 65 44 116h5q11 0 11 -14h6l21 14q2 -9 11 -9h11q39 9 44 9v-5q-5 -6 -5 -23 q16 0 16 19h16v-5l-16 -46l11 4h11q11 -1 11 -9q0 -6 -22 -78v-5q26 0 284 231q97 134 110 139l11 -5q7 32 22 32q10 -4 16 -4v4l-5 23q5 9 5 14q-11 0 -11 9l6 10l11 -5h5v5l-5 9q10 0 10 9l-10 14q16 0 16 19l11 -5h5v5h-11v9l11 -5l11 5q11 -5 17 -5q0 7 22 19 q-7 23 -17 23l-11 -5v9q0 10 17 10v4q-22 0 -22 9q7 1 49 139q-16 136 -49 176q-39 59 -170 87q-27 0 -82 5q-64 -14 -76 -23q-10 4 -22 4q-7 -7 -110 -41q-23 -21 -98 -60q-77 -65 -88 -65q-22 7 -22 14q39 22 39 28l-6 9q127 106 148 106q0 9 -11 9q-59 -22 -181 -134 q-131 -148 -147 -189q-46 -41 -77 -138q-12 0 -44 -111q-43 -123 -43 -204v-37zM805 1616h16q0 9 -11 9h-5v-9zM887 1644q27 -1 27 -10q11 5 16 5v9q-5 0 -16 5q-9 -5 -27 -5v-4zM930 771h17v9h-17v-9zM963 780h17q0 9 -11 9zM996 729h6q10 0 10 9v5h-5q-11 -2 -11 -9v-5z M1116 891h17q0 18 11 18v9l-11 -4q0 4 -6 4q0 -11 -11 -23v-4zM1127 1029h17v14q-11 -4 -17 -4v-10zM1138 1048h11l-5 9q5 9 5 14h-11v-23zM1171 1136q6 -9 6 -19q17 9 27 9v5q-11 0 -11 18h-5q-8 0 -17 -13z" />
<glyph unicode="R" horiz-adv-x="889" d="M0 1471q0 46 25 60q148 127 335 171q85 15 107 15q112 0 242 -72q72 -49 114 -124q42 -81 42 -246l-21 -93q-61 -147 -231 -245q-111 -44 -114 -54v-3q25 -96 142 -307q120 -197 221 -309q181 -166 181 -200q0 -11 4 -25q-12 -7 -21 -7l-18 4q-5 -15 -18 -22l-18 4 q0 -7 -7 -7q0 3 -3 3q0 -14 -8 -14q-31 1 -188 157q-189 191 -239 302q-90 141 -153 278q-21 52 -21 57h-8q-41 -195 -131 -399q-52 -114 -82 -114q-14 -7 -39 -7h-15q-7 0 -7 25l-14 -14q-9 11 -21 11l3 25q-3 0 -25 -25q-7 0 -7 7q0 3 4 3l-4 7q232 525 232 830 q0 82 -32 278q-4 36 -11 36q-67 -46 -114 -86h-11q-35 0 -71 100zM345 1517q8 -11 29 -178q3 -11 18 -160v-14q0 -53 -4 -143q43 0 225 100q170 131 170 228v25q-39 100 -135 142q-89 36 -160 36h-7q-136 -12 -136 -36z" />
<glyph unicode="S" horiz-adv-x="1012" d="M-7 1143v41q0 180 322 395q109 70 290 115l114 16q24 -14 41 -102q9 -12 12 -12l-4 -29v-28q0 -21 -155 -37q-258 -64 -408 -232q-75 -87 -94 -164q43 -16 106 -16q306 53 371 53q204 0 302 -147q28 -28 57 -142q13 -37 13 -62v-69q0 -55 -62 -151q-129 -128 -183 -147 q-241 -122 -449 -122q-93 0 -98 33q-49 15 -57 24l4 8q-8 0 -8 8v4q0 9 17 9v8q-13 0 -13 8q7 4 21 4l-4 8v8h28v4l-20 17l8 4h16q4 0 4 -4q25 11 90 16q287 67 396 135q107 63 179 175l16 65v29q0 44 -142 90q-60 5 -66 8q-7 -4 -16 -4h-8q-4 0 -4 4l-8 -4h-21 q-84 0 -306 -49q-192 8 -208 65q-63 95 -73 167z" />
<glyph unicode="T" horiz-adv-x="807" d="M-39 1581q4 21 4 35v19q0 11 42 23q57 -52 204 -84q167 -27 289 -27h131q88 0 415 61q291 73 427 100q4 0 4 -3l50 7l4 -7q0 -27 -73 -58v-4q5 0 11 -12v-3q-68 -30 -73 -47v-3q16 0 16 -8v-4q0 -8 -46 -23q0 -12 -85 -39q0 -15 -246 -73q-311 -65 -354 -65v-4 q15 -73 30 -173q0 -4 -3 -4q7 -37 7 -104v-11q0 -378 -211 -708q-24 -43 -66 -43q-17 -19 -34 -19h-12q-8 0 -8 8q4 0 4 4q-19 3 -19 15l-15 -12l-4 8q0 7 7 23v4h-3l-20 -23h-11v4l54 123q169 327 169 643q-22 265 -50 265q-225 0 -443 69q-77 39 -77 97q-2 0 -15 53z" />
<glyph unicode="U" horiz-adv-x="1129" d="M-8 775q0 107 65 340q126 341 258 541q45 57 61 57q35 0 79 -48l39 -44q0 -10 17 -35v-21q-105 -103 -257 -472q-79 -227 -79 -358v-43q19 -240 92 -240h9q246 0 502 432q74 182 100 323q83 350 122 393h13q8 0 13 -22l18 8q0 -48 26 -48v-26l-4 -8l39 -27v-61 q0 -53 -109 -510q-69 -216 -275 -450q-175 -157 -327 -157q-162 0 -310 153q-92 94 -92 323z" />
<glyph unicode="V" horiz-adv-x="807" d="M-41 1555q74 34 109 34q89 0 89 -38q48 -44 113 -324q13 -48 38 -214q4 0 4 -4v-4q0 -13 -4 -13l4 -21v-63h9q125 222 294 441q120 155 340 362l9 4h4q21 -31 34 -34q8 5 12 5q2 -34 30 -34q0 -6 21 -21v-4q0 -10 -5 -17q5 -7 5 -17v-4q-33 -50 -122 -139 q-224 -257 -349 -454l-122 -210q-73 -145 -101 -215q-76 -177 -114 -248q-20 -29 -25 -29q-30 0 -143 88l-4 38q21 0 46 370v59q0 260 -113 576q-59 108 -59 130z" />
<glyph unicode="W" horiz-adv-x="1641" d="M-51 1587q0 35 97 68l19 -5l25 5q102 -37 276 -456q102 -290 102 -509q102 174 218 582q27 232 54 232q9 -11 9 -19q9 5 49 10q0 -6 34 -24q0 -10 5 -10l9 5q38 -20 78 -29q71 -121 136 -253q97 -241 145 -523q5 -20 5 -34q52 91 131 378q29 92 58 305q0 5 -5 5 q10 100 10 126q-5 141 -5 233l10 5q5 -9 5 -14h9v14q0 24 30 34h4q13 -1 44 -44v29h10q0 -8 39 -38q48 -129 48 -330q0 -283 -136 -684q-92 -255 -184 -359l-73 -73q-116 31 -116 54q-15 0 -39 34q-18 0 -24 29q5 41 5 68v9l-68 403q-10 10 -44 155q-5 0 -48 146h-10 q-151 -502 -272 -670q-42 -64 -111 -140q0 -20 -10 -20q0 18 -63 25q-126 73 -126 101l48 68q0 34 -24 39q-19 109 -34 267q-55 267 -126 427q-61 137 -92 189q-102 151 -102 189z" />
<glyph unicode="X" horiz-adv-x="1242" d="M-11 439q62 244 476 704l71 71v5q-125 126 -324 243q-95 39 -96 56q0 30 86 106q0 21 76 45q129 -43 212 -126q75 -41 218 -172q408 302 542 339h20q10 -2 10 -10q-5 0 -5 -5q21 0 21 -10q-8 0 -16 -16h11q9 6 15 6l10 -16v-5q-15 -19 -15 -30q28 -7 40 -15l26 5 q5 -10 5 -15q-17 -61 -264 -218q-175 -113 -248 -183v-5q175 -258 182 -339q102 -261 102 -461q-19 -6 -66 -76l-51 5q-10 -5 -15 -5l-10 15l-10 -5q-28 29 -71 213q-89 294 -182 436l-46 65q-68 -56 -208 -227q-217 -268 -273 -436q-28 -72 -51 -81h-5q-167 78 -167 142z " />
<glyph unicode="Y" horiz-adv-x="835" d="M3 143q28 56 36 100q8 0 8 16h-4q-4 0 -20 -24l-4 8q0 7 16 40v4h-4q0 -12 -8 -12h-4q0 10 36 80q8 25 32 60q0 15 12 52l-4 28q7 0 16 40q155 288 384 560q-70 133 -80 140q0 22 -172 208l-72 60q-116 53 -116 116q36 80 92 96h4q76 -20 176 -116q226 -229 276 -372h4 q6 0 188 192q258 235 376 260q0 7 28 8l32 -28q68 -41 68 -76v-28q-5 -13 -164 -88q-138 -91 -320 -276q-327 -343 -500 -624q-118 -197 -192 -352q-33 -76 -68 -120l-8 12l4 24v4h-8l-4 -16h-4q-4 0 -16 16q-8 -4 -12 -4q-4 8 -4 12z" />
<glyph unicode="Z" horiz-adv-x="1248" d="M-8 460q0 46 43 66q9 0 223 255q324 329 510 450l77 61q-230 34 -382 109q-145 77 -145 123l-17 85q0 104 47 104h12q258 -165 348 -165q133 -38 227 -38h124q28 0 86 5v-5l8 5h13q47 0 103 14q77 -11 77 -28l-34 -114q0 -84 -133 -137q-145 -69 -463 -312 q-159 -138 -261 -237q0 -5 -107 -104v-5q137 5 180 5q216 0 467 -85q256 -105 338 -213l4 -24q-14 -5 -34 -42q-8 0 -21 -43l-9 5h-4v-14h-22q-406 179 -548 179q-55 15 -146 15h-85q-10 0 -18 -5l-8 5q-60 -5 -103 -5q-15 -5 -17 -5v5q-187 -38 -283 -71q-37 0 -47 161z " />
<glyph unicode="[" horiz-adv-x="758" />
<glyph unicode="\" horiz-adv-x="569" />
<glyph unicode="]" horiz-adv-x="758" />
<glyph unicode="^" />
<glyph unicode="_" horiz-adv-x="1024" d="M0 -100h1024v-60h-1024v60z" />
<glyph unicode="`" horiz-adv-x="1024" d="M212 1363q0 31 20.5 51t53.5 20q20 0 40.5 -12t55.5 -47l291 -296h-69l-330 202q-31 20 -46.5 40t-15.5 42z" />
<glyph unicode="a" horiz-adv-x="842" d="M0 900q31 195 225 373q181 158 387 158q104 -16 104 -36v-14q0 -55 27 -76v-9q-40 -189 -40 -225q-5 -36 -5 -108q0 -192 126 -446q14 -13 27 -45l-9 -18l-22 4l-32 -4q-144 22 -144 54q-16 13 -68 103q-4 0 -4 5q-91 -84 -135 -90q-69 -23 -122 -23q-178 0 -229 113 q-86 153 -86 284zM126 800q0 -69 117 -76h32q129 0 238 85q-18 66 -18 167v5q0 116 18 211h-4q-96 -10 -248 -148q-102 -116 -135 -244z" />
<glyph unicode="b" horiz-adv-x="838" d="M0 506v8q0 19 8 34l-4 21q0 18 42 169q31 84 59 426q0 4 -4 4l4 30v29q0 384 -42 456q0 31 -38 219q-4 57 -4 85q18 25 72 46h38q38 0 59 -84q84 -281 84 -515q6 -34 13 -34q38 13 164 34q203 -38 203 -89q105 -116 135 -270q0 -29 8 -59q0 -132 -67 -227 q-52 -97 -110 -119q0 -10 -88 -71q-191 -97 -283 -97h-9q-30 6 -97 38q-32 -68 -63 -68q-9 0 -46 -4q-34 31 -34 38zM202 679h9q447 146 447 451q0 68 -76 97l-67 17q-106 0 -220 -72q-29 -16 -29 -75q0 -152 -64 -418z" />
<glyph unicode="c" horiz-adv-x="723" d="M-1 833v54q0 92 133 274q132 151 202 182q118 77 261 95q92 0 92 -25q10 0 28 -116q-32 -50 -70 -50q0 -2 -21 -12h-33q-128 -17 -286 -149q-182 -210 -182 -336q38 -53 116 -53q118 0 327 140q11 0 21 9l13 -9q1 9 8 9h8q10 0 17 -54q4 0 4 -4q0 -28 -17 -54 q4 -14 17 -17q0 -46 -124 -136q-117 -79 -245 -79q-95 0 -174 91q-95 153 -95 240z" />
<glyph unicode="d" horiz-adv-x="779" d="M2 841v34q0 168 140 332q151 160 276 199q65 21 128 30q45 243 144 471q55 115 68 115h4q37 0 81 -81q13 -3 21 -29l-4 -22q4 -30 8 -38q0 -38 -76 -229q-30 -85 -72 -276q0 -5 4 -5q-21 -48 -38 -429v-17q0 -159 64 -390q-4 -30 -22 -30l-17 4q-8 -4 -12 -4 q-132 57 -132 119l-13 8q-107 -102 -242 -102h-8q-130 0 -213 128q-89 125 -89 212zM146 761q0 -44 73 -68q138 0 246 106q35 38 42 38q0 25 -4 140l13 238h-9q-50 -14 -131 -59q-162 -128 -191 -230q-39 -84 -39 -131v-34z" />
<glyph unicode="e" horiz-adv-x="729" d="M-3 938q0 4 4 4l-4 18q0 126 83 266q99 124 187 157q68 29 166 43q0 9 13 9q73 0 140 -48q117 -61 117 -240l-4 -8q0 -5 4 -5q0 -128 -117 -192q-93 -69 -271 -69q-67 0 -87 61q-44 67 -44 104h-8q-49 -100 -53 -174q0 -71 114 -140q28 -13 43 -13h35q85 0 240 87 q39 14 52 14h13q7 0 27 -27v-4q0 -18 -5 -48q9 -17 9 -30q-7 0 -17 -48q0 -37 -109 -105q-90 -48 -162 -48h-48q-173 0 -287 301q-31 87 -31 135zM219 1104q0 -19 70 -22q189 0 288 126q-53 31 -109 31h-13q-143 -38 -227 -122z" />
<glyph unicode="f" horiz-adv-x="429" d="M-1480 148v4l8 3h46q4 0 4 -3q8 3 12 3l-4 8v4q3 0 23 4l8 -4l8 4q7 -4 12 -4l7 4q8 -4 12 -4q1 8 8 8h4v-8l19 4h12q4 0 4 -4q4 0 4 4q17 0 116 -4q619 0 855 163q283 146 459 529q73 181 182 587h-4q-160 31 -229 89q-50 57 -50 132q0 74 35 74h15q96 -78 292 -113 q7 7 42 94q39 82 132 174q169 144 284 144h51q48 0 136 -50q11 -30 11 -43v-70q0 -4 -4 -4l4 -8v-4q0 -7 -7 -7h-12q-19 14 -124 23h-20q-31 -22 -97 -43q-100 -52 -155 -120q-70 -80 -70 -101v-4q45 -4 66 -4h15q120 0 529 70q307 47 357 47q1 7 8 7q13 -18 35 -23v-4 q-18 -26 -62 -35q-15 0 -86 -46q-145 -32 -175 -59q-81 -42 -279 -81q-244 -55 -311 -55h-55q-8 0 -15 -4q-7 4 -16 4h-89q-62 -192 -179 -610q-161 -438 -517 -649q-164 -89 -326 -128q-227 -35 -307 -35v4l-8 -4q-12 0 -12 4q-39 -8 -124 -8h-66q-4 0 -4 4l-8 -4 q-70 9 -70 12q-11 -4 -11 -8q-47 5 -47 15l-16 -3q-50 6 -50 23h-4q-31 0 -50 15q-55 8 -55 20q0 8 12 8q-7 8 -62 27q0 26 -47 39z" />
<glyph unicode="g" horiz-adv-x="888" d="M-1511 57v10h15q36 0 186 -112q146 -102 259 -137q28 -14 103 -25l5 -10l9 5h98q5 0 5 -5q5 0 5 5l34 -5h49q403 0 783 255q142 119 200 205q139 183 201 313h-5q-107 -53 -156 -53q-164 0 -250 186q-29 75 -29 215v14q0 113 93 240q248 274 553 274l34 -5q19 5 34 5 q59 -24 59 -68q47 0 88 -74v-9q0 -108 -64 -402q0 -107 -166 -460q-136 -228 -343 -445q-246 -227 -636 -323q-187 -29 -254 -29q-334 0 -572 147q-102 33 -304 230q0 18 -34 58zM133 855q37 -93 112 -93q0 -5 30 -5q180 0 308 181q39 184 39 279q-51 0 -230 -83 q-165 -100 -230 -206q-29 -62 -29 -73z" />
<glyph unicode="h" horiz-adv-x="865" d="M-38 1973v23q0 31 97 51h9q87 -11 87 -46q41 -58 64 -193q37 -98 65 -382q0 -50 4 -64q88 41 161 41h5q119 0 294 -147q78 -97 78 -243q0 -129 -64 -391q-34 -119 -51 -133h-4q-67 23 -161 73l-5 23v14q83 351 83 483q-14 165 -60 165h-4q-91 0 -193 -83 q-97 -119 -97 -234q0 -107 -92 -409q-14 -51 -55 -51q-22 0 -32 -9q-25 0 -32 18l-10 -4q-4 0 -27 27l4 28l-13 18q82 400 82 685q5 0 5 5l-5 27v5q0 365 -133 703z" />
<glyph unicode="i" horiz-adv-x="384" d="M-33 554v5q130 483 130 659q-11 98 -11 135q0 68 58 68q0 10 20 10q161 0 161 -67q11 -52 11 -94v-109l-6 -31l6 -10q-58 -408 -187 -618q-146 19 -146 36l-10 -5q-24 10 -26 21zM24 1940q10 104 88 104q0 5 6 5q108 0 176 -62l-21 -78v-16q0 -28 5 -72q-18 -46 -25 -52 h-16q-203 65 -203 119q-5 43 -10 52z" />
<glyph unicode="j" horiz-adv-x="405" d="M-1686 241v8h13q31 0 162 -98q133 -94 243 -124q4 -5 81 -21q183 -4 201 -4q203 0 456 111q129 42 307 213q238 290 316 504q60 161 103 507q11 24 21 98l38 5q51 -20 51 -60q34 0 77 -60v-8q0 -100 -55 -355q0 -90 -141 -392q-75 -122 -188 -273q-193 -221 -362 -294 q-294 -137 -525 -137q-299 0 -504 128q-88 29 -264 201q0 15 -30 51zM208 1751q13 201 47 201q3 0 56 4q110 -22 132 -51v-13q-26 -68 -47 -205q-14 -43 -21 -43q-162 32 -162 77z" />
<glyph unicode="k" horiz-adv-x="812" d="M-29 435q0 26 109 306q101 339 101 630v22q0 277 -92 578q0 51 127 57q74 -12 74 -57q23 0 71 -350l13 -171v-179q131 59 267 254q31 34 70 61h4q9 0 9 -13h9l13 9h4q13 0 13 -75l-9 -17l9 -18q0 -109 -135 -284l-92 -79q-9 0 -44 -26q44 -225 206 -429q83 -84 83 -101 q-27 -38 -127 -52h-22q-52 0 -236 236l-66 140q0 17 -9 17h-4q-77 -287 -167 -428q-19 -30 -30 -31q-9 4 -13 4q-28 -26 -79 -26q-9 0 -9 18h-9q-17 -14 -26 -14q-6 18 -13 18z" />
<glyph unicode="l" horiz-adv-x="389" d="M-7 521v12q99 246 151 535q21 135 21 353q-21 269 -60 538v22q23 56 112 56q73 0 73 -65q12 0 35 -198q34 -260 34 -375l-4 -25q0 -5 4 -5l-4 -26q0 -387 -138 -732q-41 -76 -52 -86q-15 -11 -77 -26h-43l-13 9l-9 -5q-30 11 -30 18z" />
<glyph unicode="m" horiz-adv-x="1246" d="M-12 556q109 231 109 482q0 180 -85 388v19q0 8 61 33q143 -9 152 -47q38 -67 47 -71q85 76 165 76h24q72 0 237 -109q123 85 222 85q74 0 236 -137q43 -52 43 -194q0 -255 -118 -582h-29q-175 26 -175 52q-4 26 -4 38q47 86 108 454q5 64 5 95q0 62 -14 108 q-49 -6 -142 -89h-52v-90q0 -239 -109 -521q-33 -8 -33 -14q-175 23 -175 52v14q104 348 104 507q-5 31 -5 61v43q0 26 -28 80h-5q-92 -43 -165 -194q-46 0 -48 -5q5 -9 5 -14q0 -9 -5 -9q5 -26 5 -38q0 -216 -113 -478q-24 -48 -38 -52q-24 0 -24 9q-42 -5 -52 -9 q-52 10 -52 28l-9 -4h-5q-15 14 -33 19q0 5 -5 14z" />
<glyph unicode="n" horiz-adv-x="795" d="M-20 593q0 12 49 131q29 137 53 165q-5 9 -5 14l5 20q-5 9 -5 14l24 88q0 5 -5 5q20 97 20 179h5q0 5 -5 5q5 27 5 39l-5 9l5 10q-10 146 -20 170v14q10 20 58 44h30q87 -27 87 -63q14 -63 14 -68v-15h15q112 68 184 68l63 15q44 0 151 -102q34 -47 34 -111q9 0 9 -97 v-107q-14 -154 -58 -330q-28 -67 -63 -194h-48q-7 0 -15 15q5 0 5 4l-10 5h-5l-14 -9q-10 0 -10 19h-5l-14 -10q-39 28 -39 34q1 26 29 54l-5 24v5l20 24v5q0 11 -5 19q14 24 14 54l-5 9l20 63l-5 10q18 61 24 73l-5 9q20 60 20 68l-5 10v63q1 24 10 24l-5 25v87 q0 62 -20 107h-19q-56 0 -160 -112q-73 -89 -73 -160q-44 -231 -97 -354q-14 -63 -63 -121h-24l-54 29q0 -10 -9 -10h-10q-60 19 -63 34z" />
<glyph unicode="o" horiz-adv-x="847" d="M-3 799v11q0 11 5 20q-5 9 -5 21v21q0 5 5 5l-5 10l16 78q-6 10 -6 15q8 0 16 26l-5 11q52 106 108 181q50 82 176 171q108 67 233 67q4 -16 114 -36q1 -6 68 -47q0 -12 41 -57q0 -8 41 -83q0 -15 16 -51l-5 -11l5 -10q-16 -176 -62 -269q-8 -65 -119 -192 q-92 -93 -150 -119q0 -19 -109 -52q-42 -10 -52 -10q-175 0 -243 166q-55 37 -83 134zM152 799q0 -114 99 -114q175 0 321 233q77 171 77 233h6l-6 11q0 5 6 5l-6 10v42q-65 20 -72 20l-26 -5l-21 5q-44 -28 -98 -36q-4 21 -10 21q-17 -11 -32 -11q0 6 -5 6l-88 -57 q-129 -174 -129 -249q-3 0 -16 -46q0 -6 5 -6l-5 -20q5 -27 5 -31z" />
<glyph unicode="p" horiz-adv-x="897" d="M-718 -276q8 0 20 10h9v-5q-5 -15 -29 -15v10zM-679 -257q0 6 44 39q0 9 44 39l5 10q-5 9 -5 20q10 0 122 117q7 0 63 63q2 -9 10 -9q0 40 49 73q0 13 93 132q15 35 73 92q24 78 73 161q20 0 20 10l-10 15q0 10 15 10v24l68 171l-5 10v4q10 25 20 25q0 39 34 205h5l-5 19 q10 76 24 147l10 -5h15q4 15 9 132q-9 0 -9 10q117 121 229 151q25 10 146 29q10 -5 15 -5t5 5q132 -19 185 -34q20 0 35 -29q5 0 39 -30h5q0 15 9 15q88 -95 117 -205v-20q0 -4 -4 -4l4 -10v-29q0 -87 -58 -186q-108 -221 -259 -293q0 5 -5 5q0 -24 -53 -44 q-28 -22 -83 -39q0 -19 -64 -29q-9 5 -14 5q0 -11 -25 -15l-5 10v5h20v9q-30 0 -30 -14q-5 0 -14 5l-20 -5q-5 0 -5 5l-24 -5h-5q-11 0 -19 5q-10 -5 -15 -5q0 10 -15 10v9q5 0 15 5q8 -5 19 -5v25l-43 -5q0 7 -15 14q0 -12 -54 -78q0 -13 -44 -53q2 -10 10 -10 q-5 -59 -44 -59l5 -24q-10 -2 -10 -10q5 0 5 -5q-8 0 -44 -58q-14 -14 -107 -161q-47 -57 -73 -103q-15 0 -74 -68l-5 10q0 3 25 24v10q-49 -10 -49 -44v-10h10v-5q-41 -54 -64 -63q-28 -45 -92 -88h-5q8 24 24 24v10h-15l-39 -24v4l5 10h-5q-21 0 -58 -34h-15v5q0 4 20 29 v5l-15 -10l-19 25q0 -16 -79 -54q0 -19 -9 -19h-15v9zM-586 -227q1 9 10 9h4v-5q0 -9 -9 -9h-5v5zM-420 -174v-5h24v15h-14q-10 -2 -10 -10zM-386 -130v-5q5 -9 5 -14h14v9q0 10 -9 10h-10zM-371 -120q1 -10 9 -10h15q0 8 10 20l-10 5q-16 -15 -24 -15zM-342 -101h10 q12 10 19 10v5q0 10 -10 10zM-235 7q10 0 10 10v5h-10v-15zM58 1008q10 0 10 9l-10 5v-14zM166 661q4 -8 4 -24q91 3 113 14v-5l9 5q5 0 5 -5q98 44 215 132q96 91 117 147q33 69 44 73l-5 24q13 13 20 78q-15 159 -64 176l-58 5h-39q-12 10 -20 10l-24 -15h-5l-10 5 q0 -8 -63 -20q-90 -57 -137 -68q-34 -12 -34 -102q0 -197 -59 -420q0 -10 -9 -10zM224 524q5 0 5 -5q24 7 24 15q0 10 -9 10h-10q0 -8 -10 -20zM273 534h19q0 10 -9 10q-10 -2 -10 -10z" />
<glyph unicode="q" horiz-adv-x="899" d="M-12 851q7 36 31 36v16l-10 -5h-11q0 13 21 15v5l-5 11q8 0 16 21h-16v-21h-10q7 62 36 62v11h-10v20q1 11 10 11q2 -11 10 -11h6q10 0 10 11q-10 0 -10 10q0 16 15 16v15l-5 37h10v-11h11q17 47 26 47l-5 11v10q22 31 26 31l10 -5h5v5h-10q10 21 26 21l-5 10q6 0 26 26 q9 0 31 42q18 0 41 36q107 78 156 78l57 11q6 0 6 -6q87 6 182 21h26q41 -23 41 -72l-10 -21l-11 5h-10q0 -20 26 -42q-15 0 -73 -15l-10 5q-124 -16 -198 -57q-191 -136 -218 -286q-16 -36 -16 -156q0 -62 120 -62q91 26 114 26q0 -6 5 -6q0 5 68 42l-5 10v5q0 7 26 26 q1 -10 10 -10q0 17 47 68l5 31q-5 9 -5 21q8 0 21 20q-5 10 -5 21l36 57q0 17 21 37v5q-11 0 -11 5q31 115 58 115q32 33 46 88v5h-5q-31 -55 -31 -62h-10v5q22 79 72 114v-5l11 5h5q8 0 31 -41q21 0 37 -31q5 0 5 -6v-5q-47 -123 -99 -338q-36 -110 -52 -202 q-26 -74 -42 -151q-10 0 -10 -5l5 -11q-10 -17 -10 -31v-36q-42 -108 -109 -468q0 -23 -21 -130l10 -5q206 150 343 176q24 14 177 52l10 -5q1 7 26 21h16q12 0 21 -5q60 21 67 21q10 0 42 -11q0 15 47 21q5 0 5 -5l83 10l5 -10q0 -11 -20 -11v-5l26 -5h36v-5 q-5 -16 -31 -16h-16v-15h5q28 5 32 5q9 -5 20 -5q2 10 11 10l5 -10v-11h-5q-10 5 -16 5q0 -7 -15 -15h-26v-11h-6q-10 0 -10 11q5 10 5 15h-15l-6 -46h-36l-16 10h-5q-1 -20 -52 -42l-36 6q0 -17 -120 -47q-12 -18 -99 -31q0 -8 -20 -16q-10 5 -16 5q-2 -9 -208 -104 q-270 -170 -270 -239v-5l5 -11l-10 -5q0 14 -47 21q0 4 -5 31h-6l-15 -10q0 8 -73 57v10q0 16 21 84q0 5 -5 5q0 100 26 151v10l-6 26q21 0 21 10v11l-5 26q10 0 10 10l-10 16q8 57 21 57l-5 26l10 16l-5 26q10 0 15 31q-5 9 -5 20q13 0 31 115q38 141 47 156l-5 10v5 q0 6 21 21q-11 17 -11 31q11 0 11 11q0 10 -11 10h-5l-26 -21q-9 6 -21 6q0 -37 -124 -37v5l-11 -5q-154 32 -265 182q0 8 -41 94v5h5q-7 32 -21 52zM482 581h15q0 10 -10 10h-5v-10zM700 1184l11 -6v21h-6q0 -5 -5 -15zM768 1184h5q0 11 5 20v6h-5q0 -6 -5 -16v-10z M1267 134q11 0 21 -6v6q0 10 -11 10h-10v-10zM1298 50h42v-10h-32q-10 0 -10 10zM1319 102q17 0 26 -5l21 21v5q-43 -15 -47 -15v-6zM1319 139h15v10q0 11 -10 11zM1407 180l11 5q10 -1 10 -10v-5q0 -10 -10 -10h-6zM1433 170l11 5q15 -5 15 -31v-5h-5q-10 0 -10 10q5 0 5 5 q-8 0 -16 16zM1464 144l16 10l5 -10q0 -10 -10 -10q-11 0 -11 10zM1480 170v5q0 8 16 16v-11q0 -10 -11 -10h-5zM1501 170v5q1 10 10 10l5 -10l-10 -5h-5zM1527 175v5h5q17 -10 26 -10q0 5 5 5l5 -10l-15 -11h-6q-8 0 -20 21z" />
<glyph unicode="r" horiz-adv-x="669" d="M-18 599q43 75 80 187h5q0 5 -5 5q3 31 16 48l-5 11q32 91 53 304h5l-5 11q11 71 11 139v69q10 0 10 6l-5 10q11 22 11 32q-6 28 -6 54q23 32 27 32v26q2 11 11 11q24 -6 43 -43h5q0 4 5 32h11v-5l-5 -11q58 0 58 -58q0 -6 -5 -6q3 -60 27 -91q5 -37 16 -37 q153 107 363 107q0 -18 90 -37q23 -13 107 -107l-16 -11h-5q-16 11 -118 32q-83 -32 -202 -59q-157 -55 -235 -213q0 -36 -102 -401q-37 -121 -80 -149h-5l-6 21l-10 -5h-16q-20 16 -38 16q-4 0 -32 -5q0 9 -32 42q0 13 -21 43zM196 1507h10q-5 10 -5 16h-5v-16z" />
<glyph unicode="s" horiz-adv-x="718" d="M-74 721v10q0 9 39 25q17 0 65 -35q84 -44 163 -44h59l99 34q94 57 148 138q-19 50 -94 50q-132 -20 -163 -20l-10 5q-5 0 -5 -5q-153 27 -153 59q-37 23 -54 109v49l-5 25h5l-5 10q0 59 69 148h20q16 25 44 25l-10 14q28 25 74 25l-5 10q0 7 69 30q39 10 79 29h5 q5 0 5 -5q6 0 94 15h45q44 0 83 10q109 -46 109 -64q-17 -43 -25 -50l5 -9v-10q-20 -41 -59 -55q-45 10 -54 10v-15l5 -9h-25v-5l25 -5v-10h-20l-15 10h-44q-179 0 -257 -64q-8 0 -59 -35v-15q8 0 20 -10l9 5q0 -7 15 -15h5q0 15 10 15h5q5 0 5 -5q5 0 5 5l49 -5h30l34 5 q2 -10 10 -10h5q19 15 45 15h10q168 0 232 -158l-5 -10l14 -59v-5q0 -86 -128 -232l-84 -69q-130 -74 -281 -74q-81 0 -213 79q-8 33 -34 59q1 10 10 10l-5 10l10 15l-15 20q5 8 5 19q-10 0 -10 10z" />
<glyph unicode="t" horiz-adv-x="372" d="M-275 1624v13q0 4 4 4q-4 8 -4 12q0 62 45 62q262 -50 340 -50v9q0 12 -37 102q-45 77 -45 103q0 19 74 36l8 -4l9 4q4 0 4 -4l28 4h45q53 0 111 -258h8q221 0 517 49v-4q509 107 529 107q7 -4 16 -4q0 12 8 12l17 -4l20 12h8l-4 -8q5 0 13 -4q3 16 8 16l37 -4q0 8 12 8 l8 -4q7 4 17 4q0 -12 16 -12v-4q0 -27 -209 -94q-3 -11 -49 -21q-10 -11 -74 -32q0 -5 -4 -5l-8 5l-37 -29q-107 -33 -127 -33v-4h12v-4q0 -17 -213 -58q-92 -41 -332 -61q-19 0 -25 -4q-4 0 -4 4q-80 -12 -143 -12v-13l4 -28h-4l4 -9v-86q0 -356 -177 -770 q-31 -33 -106 -66q-4 7 -4 21h-9q0 -7 -12 -21l-8 4l-12 -8q-25 11 -25 16q0 34 57 193q111 356 111 623q0 148 -20 148q-112 0 -373 49q-16 0 -25 102zM1434 1805h25v4h-25v-4zM1467 1809l8 4q8 -4 13 -4l8 12h-4l-25 -4v-8zM1557 1825v8l21 5h4v-9q-22 -4 -25 -4z" />
<glyph unicode="u" horiz-adv-x="817" d="M0 936v32l5 21l-5 11q5 44 11 53q0 6 -6 6q22 134 54 235h5l11 -5q0 48 32 59q11 43 59 96q4 -18 32 -32q5 10 5 22q36 0 59 -43l-5 -27q23 -13 32 -37q-86 -177 -86 -354q14 -246 91 -246h6q180 0 257 273q11 40 11 75v43q0 5 5 5q0 5 -5 5q16 65 16 91v38h10v21 q0 12 6 22l-6 10q16 42 54 65h21q30 -32 81 -59q10 -28 10 -43q-5 -97 -5 -129h-5q0 -5 5 -5l-5 -37l5 -38h-5q0 -5 5 -5q-11 -86 -11 -145l6 -21l-6 -11q27 -181 102 -321q16 -20 16 -38q-33 -16 -48 -16q0 8 -16 16v-5q5 -10 5 -16h-11q-89 41 -139 118q-22 37 -32 37 q-127 -139 -203 -139q-43 -13 -43 -16q-116 0 -182 70q-56 27 -107 69q-86 87 -86 295z" />
<glyph unicode="v" horiz-adv-x="767" d="M-38 1363v22h16q3 -22 17 -22v11h-11v21q1 11 11 11h10q6 0 6 -5l65 16q86 -46 87 -65q105 -212 157 -445q35 29 76 136q24 43 32 43l-5 11q41 90 200 298q24 24 65 38l11 -5l11 5q16 -5 16 -11l11 6q80 -50 87 -76q-21 -43 -27 -43l5 -27q-80 -122 -206 -375 q-13 -6 -43 -86q-54 -95 -81 -217q-32 -91 -38 -98h-6q-21 17 -32 17l-11 -33l-11 5h-11l-27 -5q0 3 -32 33l-11 -17q-19 0 -44 17q0 -11 -11 -11q-59 31 -59 114q5 9 5 21v6q-11 8 -27 151q-43 201 -54 212v5l5 11q-9 0 -21 65l-92 222z" />
<glyph unicode="w" horiz-adv-x="1122" d="M0 843v25q0 12 5 21q-5 10 -5 15q29 249 97 372q84 158 143 158q0 -22 61 -30l15 -21v-5l-5 -10q10 -2 10 -10v-26q-25 -37 -30 -71q-26 -11 -51 -97q-14 -19 -46 -107q5 -10 5 -15l-10 -5q0 -6 5 -6q-5 -71 -10 -71l5 -25v-92q29 -148 51 -148h10q52 0 148 173 q61 130 97 316q12 31 20 31q-5 10 -5 15q14 37 51 97v15h20q46 -28 56 -40q30 -19 51 -72v-35q-23 -49 -30 -113q5 -9 5 -20v-5l-15 -31q0 -5 5 -5q-5 -56 -16 -66v-26q0 -149 56 -239h16q76 0 148 163q20 85 56 194q0 5 -5 5l5 35v6l-5 30l15 26q-10 0 -10 10q3 25 25 25 l-25 51v5h5q0 6 -5 6q0 17 15 40v26q0 11 -5 20l10 31q-5 9 -5 20q0 10 15 10q13 0 36 -35q18 0 56 -82l-5 -10q24 0 36 -102q5 0 10 -15q-10 -26 -10 -36q5 0 15 -20l-5 -26v-25q0 -174 -46 -286q5 -10 5 -15q-13 0 -36 -82q-17 -7 -56 -81l-56 -46q-10 -16 -25 -16l5 -10 l-26 -10q-123 0 -244 107q-10 0 -67 46q-63 -59 -102 -87q0 -28 -173 -51q-46 19 -122 82q-71 30 -97 87q-36 90 -36 163z" />
<glyph unicode="x" horiz-adv-x="839" d="M-44 1309v6q0 36 45 61l-6 11q17 37 39 45h56q59 0 94 -45q39 0 134 -61q59 0 89 -83l17 -12h17q188 151 256 151h45q34 -29 55 -106q0 -69 -172 -162l-73 -61q17 -21 17 -33h-6q158 -270 218 -452l-6 -11l11 -22q-11 -39 -44 -39q-17 0 -45 11q0 -11 -11 -11h-11 q-101 0 -101 56q-11 15 -72 28q0 66 -117 267l-11 -6l-17 12q-57 -69 -134 -223l-39 -106q-13 -11 -55 -17q-104 81 -117 123q36 141 223 395v6q0 14 -62 89q-1 10 -189 167q-17 0 -28 22z" />
<glyph unicode="y" horiz-adv-x="827" d="M-1096 132q8 5 19 5l-9 14v5h9q0 -6 33 -29q141 -133 186 -133l29 -29h5l9 5q42 -43 129 -43h10q0 -10 4 -10l24 5q19 -5 38 -5q0 -14 29 -14q0 11 24 14l19 -9q1 9 9 9h24l24 -5q2 10 10 10l23 -14q0 24 62 24q9 -5 20 -5q0 9 57 24q9 -5 14 -5q0 8 115 38q0 9 114 48 q76 43 191 133q114 107 205 243q24 48 43 62q-5 19 -5 34h-24q-16 0 -24 5l-28 -5q-85 0 -229 181q-43 97 -58 253q0 9 5 9l-5 24q0 235 139 443l33 20h14q0 -3 62 -39q20 -28 20 -43q-28 -58 -58 -104l-33 -110v-19l14 -29q-5 -43 -24 -76q5 -9 5 -14l-5 -10q0 -5 5 -5 q-9 -50 -9 -62q4 -9 4 -14q-4 0 -4 -5q6 0 14 -14v-19q0 -101 67 -148q37 -24 52 -24q97 0 191 186q38 126 52 334l-4 10q3 19 9 19q0 4 -5 4q0 22 19 105h10q5 0 5 -5l9 5h15q57 -27 57 -38h28q48 0 81 -81q0 -7 10 -19q-10 -16 -10 -24q0 -24 5 -71l-9 -120q0 -5 4 -14 q-28 -246 -95 -410q0 -10 -9 -10l4 -9q-19 -15 -28 -62l-86 -129q0 -19 -43 -81q0 -26 -119 -171q-83 -96 -115 -96l5 -9q0 -10 -14 -10h-15q0 -20 -47 -29q-19 -21 -19 -23l-24 4h-24q0 -28 -33 -28l-153 -91q-140 -43 -215 -76q-5 0 -14 -5q-5 0 -5 5q-6 0 -124 -19v5 l-9 -5h-24q-10 0 -10 9q5 0 5 5l-33 -5h-10v10h10v5h-5q-16 -2 -24 -24q-8 -5 -19 -5q-15 10 -28 10h-39l-14 9h-48q-71 21 -157 57h-9v10q14 0 14 9l-14 10l-48 -5v10h14v9q-101 54 -186 148v5l15 19l-10 5h-5l-9 -5q0 38 -29 38v24q-18 21 -19 43zM-433 -250h9l24 5 q0 10 -14 10q-19 -8 -19 -15zM-381 -240h5q11 0 19 5q9 -5 14 -5l5 9h-33q-10 -1 -10 -9z" />
<glyph unicode="z" horiz-adv-x="851" d="M-747 179l9 20q29 0 200 -107q216 -92 293 -92q516 0 743 450q51 109 51 149v15q-225 0 -451 -113h-51q-12 0 -46 149q-19 8 -19 15v5q0 59 358 420v5q-201 31 -274 92q-37 96 -37 149q0 97 41 97h14q9 0 107 -61q176 -51 255 -51q21 0 214 15h19q11 10 18 10 q98 0 98 -31l4 -20q-6 0 -13 -15q10 -72 18 -82q0 -102 -130 -154q-155 -99 -269 -205v-10q106 10 162 10h10q153 -10 153 -46l-5 -25q16 0 65 -57v-10q-46 -246 -97 -353q-61 -122 -195 -266q-202 -191 -400 -221q-18 -10 -51 -10h-51q-10 0 -19 -5q-7 5 -23 5 q-266 0 -650 261q-51 60 -51 67z" />
<glyph unicode="{" d="M240 638v60q172 5 223 71t51 133v468q0 74 77 141.5t185 67.5h108v-50h-90q-61 0 -107 -33.5t-47 -91.5v-500q0 -83 -60.5 -158.5t-142.5 -76.5v-2q82 -1 143 -76t61 -158l-1 -500q1 -58 47 -91.5t107 -33.5h90v-50h-108q-108 0 -184.5 67.5t-77.5 141.5v468 q0 66 -51 132t-223 71z" />
<glyph unicode="|" d="M427 -418v1995h160v-1995h-160z" />
<glyph unicode="}" d="M130 -192h90q61 0 107 33.5t47 91.5l-1 500q0 83 61 158t144 76v2q-83 1 -143.5 76.5t-60.5 158.5v500q-1 58 -47 91.5t-107 33.5h-90v50h108q108 0 185 -67.5t77 -141.5v-468q0 -67 51 -133t223 -71v-60q-172 -5 -223 -71t-51 -132v-468q-1 -74 -77.5 -141.5 t-184.5 -67.5h-108v50z" />
<glyph unicode="~" d="M94 556v156q64 73 123 99t114 26q64 0 181.5 -49.5t172.5 -49.5q52 0 108.5 28t129.5 112v-156q-63 -72 -122 -97.5t-116 -25.5q-60 0 -177.5 48.5t-176.5 48.5q-51 0 -107.5 -28t-129.5 -112z" />
<glyph unicode="&#xa1;" horiz-adv-x="672" />
<glyph unicode="&#xa2;" horiz-adv-x="1139" />
<glyph unicode="&#xa3;" d="M76 673v60h135q-58 143 -58 253q0 226 123.5 347t306.5 121h4q75 0 185.5 -14t110.5 -34v-161h-58q-5 61 -77 102q-72 31 -160 31h-2q-100 0 -190 -101q-84 -93 -84 -241q0 -15 1 -30q0 -135 53 -273h360v-60h-334q14 -30 31 -60q35 -63 35 -138q0 -161 -162 -375h402 q130 0 189 132l49 -1l-103 -231h-719l1 50q187 238 187 418q0 77 -34 143q-17 32 -31 62h-161z" />
<glyph unicode="&#xa4;" d="M122 413l118 117q-32 46 -48 103q-12 42 -12 84q0 44 13 87q16 55 47 99l-118 118l80 81l118 -118q44 30 99 46q44 14 89 14q41 0 83 -12q57 -17 102 -48l118 118l80 -81l-117 -117q31 -46 48 -102q12 -42 12 -85q0 -42 -12 -85q-17 -56 -48 -102l117 -117l-80 -81 l-118 118q-45 -32 -101 -48q-42 -12 -85 -12q-42 0 -85 12q-57 16 -102 48l-118 -118zM284 716q0 -28 9 -56q16 -59 57 -100q41 -40 99 -57q29 -8 58 -8t58 8q58 17 99 57q40 41 57 99q9 29 9 58t-9 58q-17 58 -57 99q-41 40 -100 57q-29 8 -58 8t-58 -9q-58 -17 -98 -56 q-39 -40 -56 -98q-10 -30 -10 -60z" />
<glyph unicode="&#xa5;" horiz-adv-x="1262" d="M8 1176q0 19 10.5 27.5t32.5 8.5q27 0 123 -8t164 -8h88q33 0 41 -6.5t8 -26.5q0 -8 -15 -14t-38 -6q-6 0 -18.5 2t-18.5 2q-24 0 -37.5 -9.5t-13.5 -25.5q0 -18 16.5 -52t46.5 -77l158 -221q13 -19 33 -53q41 -70 71 -70q9 0 16.5 5t14.5 15l277 396q8 12 13 26.5 t5 24.5q0 18 -10 27t-37 14q-15 2 -41 4q-47 3 -47 25q0 15 8 22.5t25 7.5q3 0 15 -1q56 -7 108 -7h139q30 0 65 1t37 1q11 0 18.5 -4.5t8.5 -11.5q0 -28 -38 -34q-18 -3 -27 -5q-63 -15 -147 -117q-7 -9 -12 -15l-169 -206h323q15 0 24 -6t9 -17q0 -15 -6 -20.5t-23 -5.5 h-366q-46 -57 -96.5 -112.5t-52.5 -59.5h511q18 0 25.5 -5.5t7.5 -17.5q0 -14 -7 -21t-22 -7h-530q0 -11 -1 -30.5t-1 -29.5l2 -215q0 -114 5.5 -150t20.5 -44q30 -17 107.5 -19t77.5 -31q0 -12 -10 -20t-25 -8q-2 0 -35.5 4t-64.5 4q-91 0 -208.5 -4t-142.5 -4q-31 0 -40 4 t-9 16t8 18.5t37 12.5q9 2 25 5q74 16 92 32q17 13 24 47t7 102l-2 242q0 19 -1.5 35t-4.5 32l-484 1q-14 0 -21 6.5t-7 19.5t6.5 19t21.5 6h467l-121 172h-344q-17 0 -23.5 5.5t-6.5 18.5q0 14 6 19.5t22 5.5h307q-43 57 -108 155q-131 197 -227 197q-7 0 -13 5.5t-6 11.5z " />
<glyph unicode="&#xa6;" d="M427 371h160v-789h-160v789zM427 789v789h160v-789h-160z" />
<glyph unicode="&#xa7;" d="M170 1130q0 148 89 237q82 79 216 86q8 1 17 1h3q66 0 163 -16.5t97 -41.5v-194h-51q-5 81 -80 132q-70 47 -149 51h-15q-78 0 -125 -44.5t-47 -117.5q0 -132 287 -269q149 -67 204.5 -143.5t55.5 -187.5q0 -171 -101 -282q-47 -39 -99 -64q108 -56 154 -118 q55 -77 55 -187q0 -171 -101 -283q-124 -102 -277 -105v1q-6 -1 -13 -1h-3q-66 0 -163 16.5t-97 41.5v194h51q5 -81 80 -132q68 -45 145 -50q113 6 185 69q72 64 72 165q0 125 -316 276q-123 64 -175.5 137t-52.5 177q0 148 89 237q67 65 170 82l-40 19q-123 64 -175.5 137 t-52.5 177zM297 571q0 -123 248 -250q56 16 97 53q73 65 73 166q0 5 -1 10h-2q-1 14 -4 27q-22 61 -113 127q-59 29 -126 29q-78 0 -125 -44.5t-47 -117.5z" />
<glyph unicode="&#xa8;" horiz-adv-x="1024" d="M209 1263q0 13 14 26l71 72q13 12 25 12q11 0 27 -14l69 -73q10 -14 10 -25q0 -13 -12 -27l-69 -75q-17 -17 -25 -17q-14 0 -25 12l-76 86q-9 12 -9 23zM574 1263q0 13 14 26l71 72q13 12 25 12q11 0 27 -13l69 -74q10 -14 10 -25q0 -13 -12 -26l-69 -76q-17 -17 -25 -17 q-14 0 -25 12l-76 87q-9 11 -9 22z" />
<glyph unicode="&#xa9;" horiz-adv-x="1674" d="M100 718q0 148 55.5 283t159.5 238q102 104 238.5 160.5t286.5 56.5q145 0 280 -56.5t239 -160.5q102 -101 158.5 -238t56.5 -283q0 -147 -56.5 -282t-162.5 -240q-105 -105 -239 -159.5t-283 -54.5q-146 0 -278 55.5t-238 160.5q-106 104 -161.5 237.5t-55.5 282.5z M160 718q0 -137 51 -259t148 -219q98 -96 219 -147t256 -51q137 0 259.5 50.5t219.5 145.5q97 98 149 221.5t52 258.5q0 134 -52 259.5t-145 219.5q-96 96 -220 147.5t-258 51.5q-137 0 -262 -51.5t-220 -147.5t-146 -219.5t-51 -259.5zM351 719q0 126 65.5 244t187.5 184.5 t254 66.5q38 0 75 -6.5t76 -20.5q5 -1 9 -1q19 0 26 30h42l72 -198h-44q-52 94 -131 124q-72 26 -147 26h-15q-86 -8 -166.5 -71t-121.5 -177q-33 -90 -33 -184q0 -25 2 -50q11 -121 69.5 -224t149.5 -152q72 -40 166 -42q124 0 194 56t70 126h53v-100q0 -46 -96.5 -86.5 t-242.5 -40.5q-142 0 -264 68t-186 185t-64 243z" />
<glyph unicode="&#xaa;" horiz-adv-x="648" />
<glyph unicode="&#xab;" horiz-adv-x="944" d="M174 479l342 303h14v-37l-205 -266l205 -266v-37h-14zM487 479l342 303h14v-37l-205 -266l205 -266v-37h-14z" />
<glyph unicode="&#xac;" d="M87 667v100h840v-491l-1 -1h-98v392h-741z" />
<glyph unicode="&#xad;" horiz-adv-x="670" d="M116 437v83q0 29 41 29h356q41 0 41 -29v-83q0 -28 -40 -28h-358q-40 0 -40 28z" />
<glyph unicode="&#xae;" horiz-adv-x="1674" d="M100 718q0 148 55.5 283t159.5 238q102 104 238.5 160.5t286.5 56.5q145 0 280 -56.5t239 -160.5q102 -101 158.5 -238t56.5 -283q0 -147 -56.5 -282t-162.5 -240q-105 -105 -239 -159.5t-283 -54.5q-146 0 -278 55.5t-238 160.5q-106 104 -161.5 237.5t-55.5 282.5z M160 718q0 -137 51 -259t148 -219q98 -96 219 -147t256 -51q137 0 259.5 50.5t219.5 145.5q97 98 149 221.5t52 258.5q0 134 -52 259.5t-145 219.5q-96 96 -220 147.5t-258 51.5q-137 0 -262 -51.5t-220 -147.5t-146 -219.5t-51 -259.5zM524 269v50h43q37 0 37 121v538 q0 121 -37 121h-43v70h356q64 -1 125 -42q60 -41 92.5 -114t32.5 -152q0 -78 -32 -150.5t-114 -134.5l82 -116q100 -141 150 -141h34v-50h-346v50h45q30 0 30 22q0 29 -69 114l-75 102q-42 0 -84 42v-159q0 -121 36 -121h53v-50h-316zM751 725l3 -8q23 -56 56 -81 q29 -22 56 -22h6q31 4 61.5 38.5t46.5 97.5q13 50 13 103q0 13 -1 27q-4 67 -28 124.5t-56.5 76t-63.5 18.5h-93v-374z" />
<glyph unicode="&#xaf;" horiz-adv-x="670" />
<glyph unicode="&#xb0;" horiz-adv-x="674" d="M60 1164q0 116 81.5 197t197.5 81q115 0 196 -81.5t81 -196.5q0 -114 -82 -196t-197 -82q-117 0 -197 81t-80 197zM130 1163q0 -87 61 -147t148 -60t147 60t60 147t-60.5 148t-146.5 61t-147.5 -61t-61.5 -148z" />
<glyph unicode="&#xb1;" />
<glyph unicode="&#xb2;" />
<glyph unicode="&#xb3;" />
<glyph unicode="&#xb4;" horiz-adv-x="1024" d="M316 1078l291 297q35 35 55.5 47t40.5 12q33 0 53.5 -20t20.5 -51q0 -22 -15.5 -42t-46.5 -40l-330 -203h-69z" />
<glyph unicode="&#xb5;" horiz-adv-x="1180" />
<glyph unicode="&#xb6;" horiz-adv-x="1024" d="M93 1086q0 157 107.5 253t285.5 96h443v-70h-127v-1365h-82v1365h-166v-1365h-84v738q-174 8 -275.5 102.5t-101.5 245.5z" />
<glyph unicode="&#xb7;" horiz-adv-x="508" d="M129 709q0 15 16 31l82 84q15 14 29 14q13 0 31 -16l80 -86q12 -16 12 -29q0 -15 -14 -31l-80 -88q-20 -20 -29 -20q-16 0 -29 14l-88 101q-10 13 -10 26z" />
<glyph unicode="&#xb8;" horiz-adv-x="1024" d="M360 -290q85 -52 152 -52q66 0 94.5 21.5t28.5 66.5t-49 64q-40 16 -102 16q-16 0 -34 -2l48 176h63l-37 -104q32 4 62 5q86 0 134 -40.5t48 -113.5q0 -76 -58.5 -120.5t-160.5 -44.5q-109 0 -189 32v96z" />
<glyph unicode="&#xb9;" />
<glyph unicode="&#xba;" horiz-adv-x="718" />
<glyph unicode="&#xbb;" horiz-adv-x="944" d="M101 176v37l205 266l-205 266v37h14l342 -303l-342 -303h-14zM414 176v37l205 266l-205 266v37h14l342 -303l-342 -303h-14z" />
<glyph unicode="&#xbc;" horiz-adv-x="1708" />
<glyph unicode="&#xbd;" horiz-adv-x="1964" />
<glyph unicode="&#xbe;" horiz-adv-x="1708" />
<glyph unicode="&#xbf;" horiz-adv-x="748" />
<glyph unicode="&#xc0;" horiz-adv-x="1540" />
<glyph unicode="&#xc1;" horiz-adv-x="1540" />
<glyph unicode="&#xc2;" horiz-adv-x="1540" />
<glyph unicode="&#xc3;" horiz-adv-x="1540" />
<glyph unicode="&#xc4;" horiz-adv-x="1540" />
<glyph unicode="&#xc5;" horiz-adv-x="1540" />
<glyph unicode="&#xc6;" horiz-adv-x="2118" />
<glyph unicode="&#xc7;" horiz-adv-x="1399" />
<glyph unicode="&#xc8;" horiz-adv-x="1151" />
<glyph unicode="&#xc9;" horiz-adv-x="1151" />
<glyph unicode="&#xca;" horiz-adv-x="1151" />
<glyph unicode="&#xcb;" horiz-adv-x="1151" />
<glyph unicode="&#xcc;" horiz-adv-x="657" />
<glyph unicode="&#xcd;" horiz-adv-x="657" />
<glyph unicode="&#xce;" horiz-adv-x="657" />
<glyph unicode="&#xcf;" horiz-adv-x="657" />
<glyph unicode="&#xd0;" horiz-adv-x="1518" />
<glyph unicode="&#xd1;" horiz-adv-x="1554" />
<glyph unicode="&#xd2;" horiz-adv-x="1614" />
<glyph unicode="&#xd3;" horiz-adv-x="1614" />
<glyph unicode="&#xd4;" horiz-adv-x="1614" />
<glyph unicode="&#xd5;" horiz-adv-x="1614" />
<glyph unicode="&#xd6;" horiz-adv-x="1614" />
<glyph unicode="&#xd7;" d="M161 470l247 247l-247 248l99 98l247 -247l248 247l98 -99l-247 -247l247 -247l-99 -99l-247 247l-247 -247z" />
<glyph unicode="&#xd8;" horiz-adv-x="1614" />
<glyph unicode="&#xd9;" horiz-adv-x="1501" />
<glyph unicode="&#xda;" horiz-adv-x="1501" />
<glyph unicode="&#xdb;" horiz-adv-x="1501" />
<glyph unicode="&#xdc;" horiz-adv-x="1501" />
<glyph unicode="&#xdd;" horiz-adv-x="1233" />
<glyph unicode="&#xde;" horiz-adv-x="1120" />
<glyph unicode="&#xdf;" horiz-adv-x="1251" />
<glyph unicode="&#xe0;" horiz-adv-x="922" />
<glyph unicode="&#xe1;" horiz-adv-x="922" />
<glyph unicode="&#xe2;" horiz-adv-x="922" />
<glyph unicode="&#xe3;" horiz-adv-x="922" />
<glyph unicode="&#xe4;" horiz-adv-x="922" />
<glyph unicode="&#xe5;" horiz-adv-x="922" />
<glyph unicode="&#xe6;" horiz-adv-x="1454" />
<glyph unicode="&#xe7;" horiz-adv-x="905" />
<glyph unicode="&#xe8;" horiz-adv-x="909" />
<glyph unicode="&#xe9;" horiz-adv-x="909" />
<glyph unicode="&#xea;" horiz-adv-x="909" />
<glyph unicode="&#xeb;" horiz-adv-x="909" />
<glyph unicode="&#xec;" horiz-adv-x="514" />
<glyph unicode="&#xed;" horiz-adv-x="514" />
<glyph unicode="&#xee;" horiz-adv-x="514" />
<glyph unicode="&#xef;" horiz-adv-x="514" />
<glyph unicode="&#xf0;" horiz-adv-x="1139" />
<glyph unicode="&#xf1;" horiz-adv-x="1108" />
<glyph unicode="&#xf2;" horiz-adv-x="1010" />
<glyph unicode="&#xf3;" horiz-adv-x="1010" />
<glyph unicode="&#xf4;" horiz-adv-x="1010" />
<glyph unicode="&#xf5;" horiz-adv-x="1010" />
<glyph unicode="&#xf6;" horiz-adv-x="1010" />
<glyph unicode="&#xf7;" d="M87 647v140h839l1 -1v-139h-840zM382 377q0 15 16 31l82 84q15 14 29 14q13 0 31 -16l80 -86q12 -16 12 -29q0 -15 -14 -31l-80 -88q-20 -20 -29 -20q-16 0 -29 14l-88 101q-10 13 -10 26zM382 1070q0 15 16 31l82 84q15 14 29 14q13 0 31 -16l80 -86q12 -16 12 -29 q0 -15 -14 -31l-80 -88q-20 -20 -29 -20q-16 0 -29 14l-88 101q-10 13 -10 26z" />
<glyph unicode="&#xf8;" horiz-adv-x="1010" />
<glyph unicode="&#xf9;" horiz-adv-x="1059" />
<glyph unicode="&#xfa;" horiz-adv-x="1059" />
<glyph unicode="&#xfb;" horiz-adv-x="1059" />
<glyph unicode="&#xfc;" horiz-adv-x="1059" />
<glyph unicode="&#xfd;" horiz-adv-x="868" />
<glyph unicode="&#xfe;" horiz-adv-x="1010" />
<glyph unicode="&#xff;" horiz-adv-x="868" />
<glyph unicode="&#x2c6;" horiz-adv-x="1024" d="M221 1079l232 355h118l232 -355h-58l-233 216l-233 -216h-58z" />
<glyph unicode="&#x2dc;" horiz-adv-x="1024" d="M234 1132q19 106 68 158.5t129 52.5q46 -1 113 -24q64 -23 112 -23h4q36 0 58 20t36 66h54q-20 -103 -68.5 -154t-126.5 -51h-4q-50 0 -113 23q-66 24 -114 24q-39 0 -60.5 -20.5t-33.5 -71.5h-54z" />
<glyph unicode="&#x2000;" horiz-adv-x="1024" />
<glyph unicode="&#x2001;" horiz-adv-x="2049" />
<glyph unicode="&#x2002;" horiz-adv-x="1024" />
<glyph unicode="&#x2003;" horiz-adv-x="2049" />
<glyph unicode="&#x2004;" horiz-adv-x="683" />
<glyph unicode="&#x2005;" horiz-adv-x="512" />
<glyph unicode="&#x2006;" horiz-adv-x="341" />
<glyph unicode="&#x2007;" horiz-adv-x="341" />
<glyph unicode="&#x2008;" horiz-adv-x="256" />
<glyph unicode="&#x2009;" horiz-adv-x="409" />
<glyph unicode="&#x200a;" horiz-adv-x="113" />
<glyph unicode="&#x2010;" horiz-adv-x="670" d="M116 437v83q0 29 41 29h356q41 0 41 -29v-83q0 -28 -40 -28h-358q-40 0 -40 28z" />
<glyph unicode="&#x2011;" horiz-adv-x="670" d="M116 437v83q0 29 41 29h356q41 0 41 -29v-83q0 -28 -40 -28h-358q-40 0 -40 28z" />
<glyph unicode="&#x2012;" horiz-adv-x="670" d="M116 437v83q0 29 41 29h356q41 0 41 -29v-83q0 -28 -40 -28h-358q-40 0 -40 28z" />
<glyph unicode="&#x2013;" horiz-adv-x="1108" d="M56 419v120h996v-120h-996z" />
<glyph unicode="&#x2014;" horiz-adv-x="2048" d="M0 419v120h2048v-120h-2048z" />
<glyph unicode="&#x2018;" horiz-adv-x="557" d="M186 1233q0 109 71 226.5t139 117.5v-43q-73 -43 -87 -190q0 -119 129 -161v-42l-119 -125q-44 0 -88.5 65.5t-44.5 151.5z" />
<glyph unicode="&#x2019;" horiz-adv-x="557" d="M119 1410v42l119 125q44 0 88.5 -65.5t44.5 -151.5q0 -109 -71 -226.5t-139 -117.5v43q73 43 87 190q0 119 -129 161z" />
<glyph unicode="&#x201a;" horiz-adv-x="557" d="M119 114v42l119 125q44 0 88.5 -65.5t44.5 -151.5q0 -109 -71 -226.5t-139 -117.5v43q73 43 87 190q0 119 -129 161z" />
<glyph unicode="&#x201c;" horiz-adv-x="910" d="M186 1233q0 109 71 226.5t139 117.5v-43q-73 -43 -87 -190q0 -119 129 -161v-42l-119 -125q-44 0 -88.5 65.5t-44.5 151.5zM539 1233q0 109 71 226.5t139 117.5v-43q-73 -43 -87 -190q0 -119 129 -161v-42l-119 -125q-44 0 -88.5 65.5t-44.5 151.5z" />
<glyph unicode="&#x201d;" horiz-adv-x="910" d="M119 1410v42l119 125q44 0 88.5 -65.5t44.5 -151.5q0 -109 -71 -226.5t-139 -117.5v43q73 43 87 190q0 119 -129 161zM472 1410v42l119 125q44 0 88.5 -65.5t44.5 -151.5q0 -109 -71 -226.5t-139 -117.5v43q73 43 87 190q0 119 -129 161z" />
<glyph unicode="&#x201e;" horiz-adv-x="910" d="M119 114v42l119 125q44 0 88.5 -65.5t44.5 -151.5q0 -109 -71 -226.5t-139 -117.5v43q73 43 87 190q0 119 -129 161zM472 114v42l119 125q44 0 88.5 -65.5t44.5 -151.5q0 -109 -71 -226.5t-139 -117.5v43q73 43 87 190q0 119 -129 161z" />
<glyph unicode="&#x2022;" horiz-adv-x="1024" d="M216 718q0 123 87 209t210 86q122 0 208.5 -86.5t86.5 -208.5t-87.5 -209.5t-209.5 -87.5q-123 0 -209 87t-86 210z" />
<glyph unicode="&#x2026;" horiz-adv-x="2048" d="M129 136q0 15 16 31l82 84q15 14 29 14q13 0 31 -16l80 -86q12 -16 12 -29q0 -15 -14 -31l-80 -88q-20 -20 -29 -20q-16 0 -29 14l-88 101q-10 13 -10 26zM812 136q0 15 16 31l82 84q15 14 29 14q13 0 31 -16l80 -86q12 -16 12 -29q0 -15 -14 -31l-80 -88 q-20 -20 -29 -20q-16 0 -29 14l-88 101q-10 13 -10 26zM1495 136q0 15 16 31l82 84q15 14 29 14q13 0 31 -16l80 -86q12 -16 12 -29q0 -15 -14 -31l-80 -88q-20 -20 -29 -20q-16 0 -29 14l-88 101q-10 13 -10 26z" />
<glyph unicode="&#x202f;" horiz-adv-x="409" />
<glyph unicode="&#x2039;" horiz-adv-x="631" d="M174 479l342 303h14v-37l-205 -266l205 -266v-37h-14z" />
<glyph unicode="&#x203a;" horiz-adv-x="631" d="M101 176v37l205 266l-205 266v37h14l342 -303l-342 -303h-14z" />
<glyph unicode="&#x205f;" horiz-adv-x="512" />
<glyph unicode="&#x20ac;" d="M-44 653l17 60h87v29q0 16 1 31h-71l17 60h58q14 145 76 281q81 178 226 274t298 96q43 0 87 -8q40 -10 82 -29q8 -6 16 -6q20 0 34 45h41l84 -281l-40 -1q-49 134 -138 178q-43 22 -81 32v3q-50 16 -101 16q-17 0 -34 -2q-120 -12 -226 -113.5t-157 -273.5 q-32 -104 -39 -211h706l-17 -60h-692q0 -30 2 -60h674l-17 -60h-652q17 -158 83 -298q74 -157 193 -236q102 -68 216 -69q186 3 256 91q74 91 74 185h48v-143q0 -70 -111 -127q-105 -54 -267 -56q-181 0 -325.5 98t-223.5 274q-62 135 -76 281h-108z" />
<glyph unicode="&#x2122;" horiz-adv-x="1497" />
<glyph unicode="&#x25fc;" horiz-adv-x="1430" d="M0 0v1430h1430v-1430h-1430z" />
</font>
</defs>
</svg>
